<svg width="136" height="136" viewBox="0 0 136 136" fill="none" xmlns="http://www.w3.org/2000/svg">
<rect x="115" y="99.4435" width="22" height="22" transform="rotate(45 115 99.4435)" fill="#E9F0E8" stroke="#062428" stroke-width="2"/>
<rect x="1" y="17" width="118" height="118" rx="11" fill="white" stroke="#062428" stroke-width="2" stroke-dasharray="8 8"/>
<rect x="17" y="1" width="118" height="118" rx="11" fill="white" stroke="#062428" stroke-width="2" stroke-dasharray="8 8"/>
<g opacity="0.3">
<rect x="34.0001" y="18" width="83.7143" height="83.7143" rx="11" fill="#F0F5ED" stroke="#062428" stroke-width="2"/>
<mask id="path-5-inside-1" fill="white">
<path fill-rule="evenodd" clip-rule="evenodd" d="M61.3198 60.2394L65.2892 62.5311C67.3055 63.6953 67.9964 66.2735 66.8322 68.2899C65.6681 70.3062 63.0898 70.997 61.0735 69.8329L51.1165 64.0842C49.7336 63.2858 48.9742 61.8222 49.0091 60.3308C48.9067 58.7789 49.6705 57.2294 51.1085 56.3991L61.0655 50.6505C63.0819 49.4863 65.6602 50.1772 66.8243 52.1935C67.9884 54.2098 67.2976 56.7881 65.2812 57.9523L61.3198 60.2394Z"/>
</mask>
<path fill-rule="evenodd" clip-rule="evenodd" d="M61.3198 60.2394L65.2892 62.5311C67.3055 63.6953 67.9964 66.2735 66.8322 68.2899C65.6681 70.3062 63.0898 70.997 61.0735 69.8329L51.1165 64.0842C49.7336 63.2858 48.9742 61.8222 49.0091 60.3308C48.9067 58.7789 49.6705 57.2294 51.1085 56.3991L61.0655 50.6505C63.0819 49.4863 65.6602 50.1772 66.8243 52.1935C67.9884 54.2098 67.2976 56.7881 65.2812 57.9523L61.3198 60.2394Z" fill="#FF867E"/>
<path d="M61.3198 60.2394L60.3198 58.5073L57.3198 60.2394L60.3198 61.9714L61.3198 60.2394ZM65.2892 62.5311L64.2892 64.2632L65.2892 62.5311ZM61.0735 69.8329L60.0735 71.565L61.0735 69.8329ZM51.1165 64.0842L52.1165 62.3522H52.1165L51.1165 64.0842ZM49.0091 60.3308L51.0086 60.3777L51.0107 60.2883L51.0048 60.1991L49.0091 60.3308ZM51.1085 56.3991L52.1085 58.1312L51.1085 56.3991ZM61.0655 50.6505L62.0655 52.3825V52.3825L61.0655 50.6505ZM66.8243 52.1935L68.5563 51.1935V51.1935L66.8243 52.1935ZM65.2812 57.9523L66.2812 59.6843L65.2812 57.9523ZM60.3198 61.9714L64.2892 64.2632L66.2892 60.7991L62.3198 58.5073L60.3198 61.9714ZM64.2892 64.2632C65.3489 64.875 65.712 66.2301 65.1002 67.2899L68.5643 69.2899C70.2807 66.3169 69.2621 62.5155 66.2892 60.7991L64.2892 64.2632ZM65.1002 67.2899C64.4883 68.3496 63.1333 68.7127 62.0735 68.1009L60.0735 71.565C63.0464 73.2814 66.8479 72.2628 68.5643 69.2899L65.1002 67.2899ZM62.0735 68.1009L52.1165 62.3522L50.1165 65.8163L60.0735 71.565L62.0735 68.1009ZM52.1165 62.3522C51.392 61.9339 50.9901 61.1673 51.0086 60.3777L47.0097 60.284C46.9583 62.477 48.0752 64.6377 50.1165 65.8163L52.1165 62.3522ZM51.0048 60.1991C50.9506 59.3781 51.3553 58.5661 52.1085 58.1312L50.1085 54.6671C47.9858 55.8927 46.8628 58.1796 47.0135 60.4625L51.0048 60.1991ZM52.1085 58.1312L62.0655 52.3825L60.0655 48.9184L50.1085 54.6671L52.1085 58.1312ZM62.0655 52.3825C63.1253 51.7707 64.4804 52.1338 65.0922 53.1935L68.5563 51.1935C66.8399 48.2206 63.0385 47.202 60.0655 48.9184L62.0655 52.3825ZM65.0922 53.1935C65.7041 54.2533 65.341 55.6084 64.2812 56.2202L66.2812 59.6843C69.2542 57.9679 70.2727 54.1664 68.5563 51.1935L65.0922 53.1935ZM64.2812 56.2202L60.3198 58.5073L62.3198 61.9714L66.2812 59.6843L64.2812 56.2202Z" fill="#08090A" mask="url(#path-5-inside-1)"/>
<mask id="path-7-inside-2" fill="white">
<path fill-rule="evenodd" clip-rule="evenodd" d="M90.6803 60.1591L86.7109 57.8673C84.6945 56.7032 84.0037 54.1249 85.1678 52.1086C86.3319 50.0922 88.9102 49.4014 90.9266 50.5655L100.884 56.3142C102.266 57.1126 103.026 58.5763 102.991 60.0676C103.093 61.6196 102.33 63.1691 100.892 63.9993L90.9345 69.748C88.9182 70.9121 86.3399 70.2213 85.1758 68.2049C84.0116 66.1886 84.7025 63.6103 86.7188 62.4462L90.6803 60.1591Z"/>
</mask>
<path fill-rule="evenodd" clip-rule="evenodd" d="M90.6803 60.1591L86.7109 57.8673C84.6945 56.7032 84.0037 54.1249 85.1678 52.1086C86.3319 50.0922 88.9102 49.4014 90.9266 50.5655L100.884 56.3142C102.266 57.1126 103.026 58.5763 102.991 60.0676C103.093 61.6196 102.33 63.1691 100.892 63.9993L90.9345 69.748C88.9182 70.9121 86.3399 70.2213 85.1758 68.2049C84.0116 66.1886 84.7025 63.6103 86.7188 62.4462L90.6803 60.1591Z" fill="#FF867E"/>
<path d="M90.6803 60.1591L91.6803 61.8911L94.6803 60.159L91.6803 58.427L90.6803 60.1591ZM86.7109 57.8673L85.7109 59.5994L86.7109 57.8673ZM85.1678 52.1086L83.4358 51.1086L83.4358 51.1086L85.1678 52.1086ZM90.9266 50.5655L91.9266 48.8335L91.9266 48.8335L90.9266 50.5655ZM100.884 56.3142L101.884 54.5821L101.884 54.5821L100.884 56.3142ZM102.991 60.0676L100.991 60.0208L100.989 60.1101L100.995 60.1993L102.991 60.0676ZM100.892 63.9993L101.892 65.7314L101.892 65.7314L100.892 63.9993ZM90.9345 69.748L89.9345 68.0159L90.9345 69.748ZM85.1758 68.2049L83.4437 69.2049L85.1758 68.2049ZM86.7188 62.4462L85.7188 60.7141L85.7188 60.7141L86.7188 62.4462ZM91.6803 58.427L87.7109 56.1353L85.7109 59.5994L89.6803 61.8911L91.6803 58.427ZM87.7109 56.1353C86.6511 55.5234 86.288 54.1683 86.8999 53.1086L83.4358 51.1086C81.7193 54.0815 82.7379 57.883 85.7109 59.5994L87.7109 56.1353ZM86.8999 53.1086C87.5117 52.0488 88.8668 51.6857 89.9266 52.2976L91.9266 48.8335C88.9536 47.1171 85.1522 48.1357 83.4358 51.1086L86.8999 53.1086ZM89.9266 52.2976L99.8835 58.0462L101.884 54.5821L91.9266 48.8335L89.9266 52.2976ZM99.8835 58.0462C100.608 58.4645 101.01 59.2311 100.991 60.0208L104.99 60.1145C105.042 57.9215 103.925 55.7607 101.884 54.5821L99.8835 58.0462ZM100.995 60.1993C101.049 61.0203 100.645 61.8324 99.8915 62.2673L101.892 65.7314C104.014 64.5058 105.137 62.2188 104.987 59.9359L100.995 60.1993ZM99.8915 62.2673L89.9345 68.0159L91.9345 71.48L101.892 65.7314L99.8915 62.2673ZM89.9345 68.0159C88.8748 68.6278 87.5197 68.2647 86.9078 67.2049L83.4437 69.2049C85.1601 72.1778 88.9616 73.1964 91.9345 71.48L89.9345 68.0159ZM86.9078 67.2049C86.296 66.1452 86.6591 64.7901 87.7188 64.1782L85.7188 60.7141C82.7459 62.4306 81.7273 66.232 83.4437 69.2049L86.9078 67.2049ZM87.7188 64.1782L91.6803 61.8911L89.6803 58.427L85.7188 60.7141L87.7188 64.1782Z" fill="#08090A" mask="url(#path-7-inside-2)"/>
</g>
<circle cx="112" cy="112" r="23" fill="white" stroke="#062428" stroke-width="2"/>
<path d="M111 111V105H113V111H119V113H113V119H111V113H105V111H111Z" fill="#062428"/>
</svg>
