<svg width="136" height="136" viewBox="0 0 136 136" fill="none" xmlns="http://www.w3.org/2000/svg">
<rect x="115" y="99.4435" width="22" height="22" transform="rotate(45 115 99.4435)" fill="#E9F0E8" stroke="#062428" stroke-width="2"/>
<rect x="1" y="17" width="118" height="118" rx="11" fill="white" stroke="#062428" stroke-width="2" stroke-dasharray="8 8"/>
<rect x="17" y="1" width="118" height="118" rx="11" fill="white" stroke="#062428" stroke-width="2" stroke-dasharray="8 8"/>
<g opacity="0.3">
<rect x="34.0001" y="18" width="83.7143" height="83.7143" rx="11" fill="#F0F5ED" stroke="#062428" stroke-width="2"/>
<mask id="path-5-inside-1" fill="white">
<path fill-rule="evenodd" clip-rule="evenodd" d="M47.7085 82.2921C45.4305 83.3786 45.4305 86.6212 47.7085 87.7077L51.2353 89.3898C52.924 90.1952 54.8355 89.2731 55.3769 87.6284C55.4274 87.656 55.4791 87.6824 55.5321 87.7077L59.0589 89.3898C61.0498 90.3393 63.3503 88.8878 63.3503 86.682V83.3179C63.3503 81.1121 61.0498 79.6605 59.0589 80.6101L55.5321 82.2921C55.4791 82.3174 55.4274 82.3438 55.3769 82.3714C54.8355 80.7268 52.924 79.8046 51.2353 80.6101L47.7085 82.2921Z"/>
</mask>
<path fill-rule="evenodd" clip-rule="evenodd" d="M47.7085 82.2921C45.4305 83.3786 45.4305 86.6212 47.7085 87.7077L51.2353 89.3898C52.924 90.1952 54.8355 89.2731 55.3769 87.6284C55.4274 87.656 55.4791 87.6824 55.5321 87.7077L59.0589 89.3898C61.0498 90.3393 63.3503 88.8878 63.3503 86.682V83.3179C63.3503 81.1121 61.0498 79.6605 59.0589 80.6101L55.5321 82.2921C55.4791 82.3174 55.4274 82.3438 55.3769 82.3714C54.8355 80.7268 52.924 79.8046 51.2353 80.6101L47.7085 82.2921Z" fill="#FBC1F5"/>
<path d="M47.7085 87.7077L48.5695 85.9025L47.7085 87.7077ZM47.7085 82.2921L48.5695 84.0973L47.7085 82.2921ZM51.2353 89.3898L50.3743 91.195H50.3743L51.2353 89.3898ZM55.3769 87.6284L56.3344 85.8726L54.2275 84.7236L53.4771 87.0031L55.3769 87.6284ZM55.5321 87.7077L54.6712 89.5129L54.6712 89.5129L55.5321 87.7077ZM59.0589 89.3898L58.1979 91.195L59.0589 89.3898ZM59.0589 80.6101L59.9198 82.4153L59.0589 80.6101ZM55.5321 82.2921L54.6712 80.4869L54.6712 80.4869L55.5321 82.2921ZM55.3769 82.3714L53.4771 82.9967L54.2275 85.2763L56.3344 84.1273L55.3769 82.3714ZM51.2353 80.6101L50.3743 78.8049L50.3743 78.8049L51.2353 80.6101ZM48.5695 85.9025C47.8102 85.5404 47.8102 84.4595 48.5695 84.0973L46.8476 80.4869C43.0508 82.2978 43.0508 87.7021 46.8476 89.5129L48.5695 85.9025ZM52.0962 87.5846L48.5695 85.9025L46.8476 89.5129L50.3743 91.195L52.0962 87.5846ZM53.4771 87.0031C53.2956 87.5547 52.6488 87.8481 52.0962 87.5846L50.3743 91.195C53.1993 92.5423 56.3755 90.9915 57.2766 88.2538L53.4771 87.0031ZM56.3931 85.9025C56.3726 85.8927 56.3531 85.8827 56.3344 85.8726L54.4193 89.3843C54.5017 89.4293 54.5857 89.4721 54.6712 89.5129L56.3931 85.9025ZM59.9198 87.5846L56.3931 85.9025L54.6712 89.5129L58.1979 91.195L59.9198 87.5846ZM61.3503 86.682C61.3503 87.4172 60.5835 87.9011 59.9198 87.5846L58.1979 91.195C61.5162 92.7776 65.3503 90.3583 65.3503 86.682H61.3503ZM61.3503 83.3179V86.682H65.3503V83.3179H61.3503ZM59.9198 82.4153C60.5835 82.0988 61.3503 82.5826 61.3503 83.3179H65.3503C65.3503 79.6415 61.5162 77.2223 58.1979 78.8049L59.9198 82.4153ZM56.3931 84.0973L59.9198 82.4153L58.1979 78.8049L54.6712 80.4869L56.3931 84.0973ZM56.3344 84.1273C56.3531 84.1171 56.3726 84.1071 56.3931 84.0973L54.6712 80.4869C54.5857 80.5277 54.5017 80.5706 54.4193 80.6155L56.3344 84.1273ZM52.0962 82.4153C52.6488 82.1518 53.2956 82.4452 53.4771 82.9967L57.2766 81.7461C56.3755 79.0084 53.1993 77.4575 50.3743 78.8049L52.0962 82.4153ZM48.5695 84.0973L52.0962 82.4153L50.3743 78.8049L46.8476 80.4869L48.5695 84.0973Z" fill="#062428" mask="url(#path-5-inside-1)"/>
<rect x="68.3503" y="78" width="6" height="14" rx="3" fill="#FBC1F5" stroke="#062428" stroke-width="2"/>
<rect x="77.3503" y="78" width="6" height="14" rx="3" fill="#FBC1F5" stroke="#062428" stroke-width="2"/>
<mask id="path-9-inside-2" fill="white">
<path fill-rule="evenodd" clip-rule="evenodd" d="M103.992 87.7079C106.27 86.6214 106.27 83.3788 103.992 82.2923L100.465 80.6102C98.7766 79.8048 96.8651 80.7269 96.3238 82.3716C96.2732 82.344 96.2215 82.3176 96.1685 82.2923L92.6418 80.6102C90.6508 79.6607 88.3503 81.1122 88.3503 83.318L88.3503 86.6821C88.3503 88.8879 90.6508 90.3395 92.6418 89.3899L96.1685 87.7079C96.2215 87.6826 96.2732 87.6562 96.3238 87.6286C96.8651 89.2732 98.7766 90.1954 100.465 89.3899L103.992 87.7079Z"/>
</mask>
<path fill-rule="evenodd" clip-rule="evenodd" d="M103.992 87.7079C106.27 86.6214 106.27 83.3788 103.992 82.2923L100.465 80.6102C98.7766 79.8048 96.8651 80.7269 96.3238 82.3716C96.2732 82.344 96.2215 82.3176 96.1685 82.2923L92.6418 80.6102C90.6508 79.6607 88.3503 81.1122 88.3503 83.318L88.3503 86.6821C88.3503 88.8879 90.6508 90.3395 92.6418 89.3899L96.1685 87.7079C96.2215 87.6826 96.2732 87.6562 96.3238 87.6286C96.8651 89.2732 98.7766 90.1954 100.465 89.3899L103.992 87.7079Z" fill="#FBC1F5"/>
<path d="M103.992 82.2923L103.131 84.0975L103.992 82.2923ZM103.992 87.7079L103.131 85.9027L103.992 87.7079ZM100.465 80.6102L101.326 78.805L101.326 78.805L100.465 80.6102ZM96.3238 82.3716L95.3662 84.1274L97.4732 85.2764L98.2235 82.9969L96.3238 82.3716ZM96.1685 82.2923L97.0295 80.4871L97.0295 80.4871L96.1685 82.2923ZM92.6418 80.6102L93.5027 78.805L92.6418 80.6102ZM88.3503 83.318L86.3503 83.318L88.3503 83.318ZM88.3503 86.6821L90.3503 86.6821L88.3503 86.6821ZM92.6418 89.3899L91.7808 87.5847L92.6418 89.3899ZM96.1685 87.7079L97.0295 89.5131L97.0295 89.5131L96.1685 87.7079ZM96.3238 87.6286L98.2235 87.0033L97.4732 84.7237L95.3662 85.8727L96.3238 87.6286ZM100.465 89.3899L101.326 91.1951L101.326 91.1951L100.465 89.3899ZM103.131 84.0975C103.89 84.4596 103.89 85.5405 103.131 85.9027L104.853 89.5131C108.65 87.7022 108.65 82.2979 104.853 80.4871L103.131 84.0975ZM99.6044 82.4154L103.131 84.0975L104.853 80.4871L101.326 78.805L99.6044 82.4154ZM98.2235 82.9969C98.405 82.4453 99.0519 82.1519 99.6044 82.4154L101.326 78.805C98.5013 77.4577 95.3252 79.0085 94.424 81.7462L98.2235 82.9969ZM95.3075 84.0975C95.328 84.1073 95.3476 84.1173 95.3662 84.1274L97.2813 80.6157C97.1989 80.5707 97.1149 80.5279 97.0295 80.4871L95.3075 84.0975ZM91.7808 82.4154L95.3075 84.0975L97.0295 80.4871L93.5027 78.805L91.7808 82.4154ZM90.3503 83.318C90.3503 82.5828 91.1171 82.0989 91.7808 82.4154L93.5027 78.805C90.1845 77.2224 86.3503 79.6417 86.3503 83.318L90.3503 83.318ZM90.3503 86.6821L90.3503 83.318L86.3503 83.318L86.3503 86.6821L90.3503 86.6821ZM91.7808 87.5847C91.1171 87.9012 90.3503 87.4174 90.3503 86.6821L86.3503 86.6821C86.3503 90.3585 90.1845 92.7777 93.5027 91.1951L91.7808 87.5847ZM95.3075 85.9027L91.7808 87.5847L93.5027 91.1951L97.0295 89.5131L95.3075 85.9027ZM95.3662 85.8727C95.3476 85.8829 95.328 85.8929 95.3075 85.9027L97.0295 89.5131C97.1149 89.4723 97.1989 89.4294 97.2813 89.3845L95.3662 85.8727ZM99.6044 87.5847C99.0519 87.8482 98.405 87.5548 98.2235 87.0033L94.424 88.2539C95.3252 90.9916 98.5013 92.5425 101.326 91.1951L99.6044 87.5847ZM103.131 85.9027L99.6044 87.5847L101.326 91.1951L104.853 89.5131L103.131 85.9027Z" fill="#062428" mask="url(#path-9-inside-2)"/>
<rect x="46.8572" y="28.7144" width="58" height="40.8571" rx="7" fill="#FFDA57" stroke="#062428" stroke-width="2"/>
</g>
<circle cx="112" cy="112" r="23" fill="white" stroke="#062428" stroke-width="2"/>
<path d="M111 111V105H113V111H119V113H113V119H111V113H105V111H111Z" fill="#062428"/>
</svg>
