<svg width="260" height="442" viewBox="0 0 260 442" fill="none" xmlns="http://www.w3.org/2000/svg">
<g clip-path="url(#clip0)">
<rect width="260" height="441.67" rx="12" fill="white"/>
<rect x="25" y="23" width="217" height="47" rx="2" fill="#0D3D42"/>
<rect x="22" y="20" width="215" height="45" rx="1" fill="#F0F5ED" stroke="#0D3D42" stroke-width="2"/>
<path d="M89.8052 48.1455V37.0899H92.0988V48.1455H89.8052ZM96.332 36.4303V48.1455H94.0384V36.4303H96.332ZM100.592 36.4303V48.1455H98.2984V36.4303H100.592ZM105.272 48.2954C104.707 48.2954 104.242 48.2055 103.878 48.0256C103.513 47.8407 103.226 47.5934 103.016 47.2835C102.806 46.9737 102.658 46.629 102.573 46.2492C102.489 45.8694 102.446 45.4847 102.446 45.0949V40.1855H104.77V44.4803C104.77 44.8151 104.807 45.1224 104.882 45.4022C104.957 45.682 105.094 45.9069 105.294 46.0768C105.494 46.2467 105.784 46.3316 106.164 46.3316C106.523 46.3316 106.831 46.2267 107.086 46.0168C107.345 45.807 107.543 45.5421 107.678 45.2223C107.813 44.8975 107.88 44.5627 107.88 44.218V40.1855H110.204V48.1455H107.88V46.9912C107.6 47.391 107.238 47.7083 106.793 47.9431C106.354 48.178 105.846 48.2954 105.272 48.2954ZM115.26 48.3254C114.63 48.3254 114.033 48.2305 113.468 48.0406C112.909 47.8457 112.454 47.5584 112.104 47.1786C111.755 46.7939 111.58 46.3142 111.58 45.7395V45.6046H113.888V45.7095C113.888 45.9993 114.016 46.2117 114.27 46.3466C114.525 46.4815 114.875 46.549 115.32 46.549C115.66 46.549 115.977 46.494 116.272 46.3841C116.567 46.2742 116.714 46.0918 116.714 45.837C116.714 45.5721 116.567 45.3847 116.272 45.2748C115.982 45.1649 115.515 45.0549 114.87 44.945C114.5 44.885 114.128 44.8001 113.753 44.6902C113.384 44.5802 113.041 44.4353 112.726 44.2554C112.412 44.0706 112.159 43.8382 111.969 43.5584C111.78 43.2736 111.685 42.9288 111.685 42.524C111.685 41.9844 111.847 41.5296 112.172 41.1599C112.502 40.7901 112.939 40.5103 113.483 40.3204C114.028 40.1305 114.628 40.0356 115.282 40.0356C115.902 40.0356 116.482 40.1405 117.021 40.3504C117.566 40.5553 118.006 40.8526 118.34 41.2423C118.675 41.6271 118.843 42.0918 118.843 42.6365V42.7414H116.557V42.6514C116.557 42.3516 116.419 42.1343 116.144 41.9994C115.874 41.8594 115.585 41.7895 115.275 41.7895C115.085 41.7895 114.888 41.812 114.683 41.8569C114.483 41.8969 114.313 41.9669 114.173 42.0668C114.033 42.1617 113.963 42.2967 113.963 42.4716C113.963 42.7264 114.128 42.9138 114.458 43.0337C114.793 43.1536 115.225 43.2561 115.755 43.341C116.089 43.396 116.442 43.4734 116.811 43.5734C117.186 43.6683 117.536 43.8057 117.861 43.9856C118.186 44.1605 118.45 44.3929 118.655 44.6827C118.86 44.9725 118.963 45.3348 118.963 45.7695C118.963 46.2242 118.858 46.614 118.648 46.9388C118.438 47.2636 118.153 47.5284 117.793 47.7333C117.438 47.9331 117.041 48.0805 116.602 48.1755C116.162 48.2754 115.715 48.3254 115.26 48.3254ZM124.248 48.3104C123.943 48.3104 123.628 48.2829 123.303 48.228C122.984 48.178 122.686 48.0756 122.411 47.9206C122.137 47.7607 121.912 47.5284 121.737 47.2236C121.567 46.9188 121.482 46.5165 121.482 46.0168V41.9844H119.646V40.1855H120.163C120.568 40.1855 120.862 40.158 121.047 40.103C121.237 40.0481 121.357 39.9082 121.407 39.6833C121.457 39.4534 121.482 39.0812 121.482 38.5665V37.5621H123.813V40.1855H126.129V41.9844H123.813V45.3573C123.813 45.702 123.853 45.9819 123.933 46.1967C124.018 46.4116 124.225 46.519 124.555 46.519C124.72 46.519 124.875 46.504 125.02 46.4741C125.17 46.4441 125.282 46.4141 125.357 46.3841V48.1305C125.252 48.1755 125.105 48.2155 124.915 48.2504C124.725 48.2904 124.503 48.3104 124.248 48.3104ZM127.538 48.1455V40.1855H129.869V41.2648C130.099 40.89 130.403 40.5927 130.783 40.3729C131.168 40.148 131.628 40.0356 132.162 40.0356C132.482 40.0356 132.732 40.0606 132.912 40.1105C133.097 40.1555 133.212 40.1905 133.257 40.2155L132.874 42.2992C132.829 42.2742 132.73 42.2342 132.575 42.1792C132.42 42.1243 132.22 42.0968 131.975 42.0968C131.44 42.0968 131.018 42.2117 130.708 42.4416C130.403 42.6714 130.186 42.9637 130.056 43.3185C129.931 43.6683 129.869 44.0256 129.869 44.3904V48.1455H127.538ZM136.985 48.3104C136.11 48.3104 135.393 48.1055 134.834 47.6958C134.274 47.286 133.994 46.7064 133.994 45.9569C133.994 45.3922 134.149 44.9325 134.459 44.5777C134.769 44.223 135.178 43.9531 135.688 43.7682C136.203 43.5784 136.76 43.4534 137.36 43.3935C138.229 43.3135 138.831 43.2386 139.166 43.1686C139.501 43.0937 139.668 42.9687 139.668 42.7939V42.7789C139.668 42.484 139.526 42.2517 139.241 42.0818C138.961 41.9119 138.569 41.827 138.064 41.827C136.965 41.827 136.415 42.2167 136.415 42.9962H134.129C134.129 42.3616 134.301 41.8245 134.646 41.3847C134.996 40.94 135.468 40.6052 136.063 40.3804C136.657 40.1505 137.33 40.0356 138.079 40.0356C138.779 40.0356 139.426 40.143 140.02 40.3579C140.615 40.5677 141.092 40.8875 141.452 41.3173C141.817 41.742 141.999 42.2792 141.999 42.9288V46.3691C141.999 46.574 142.004 46.7714 142.014 46.9612C142.029 47.1511 142.059 47.321 142.104 47.4709C142.154 47.6458 142.217 47.7907 142.291 47.9057C142.366 48.0206 142.429 48.1005 142.479 48.1455H140.193C140.158 48.1055 140.103 48.0331 140.028 47.9281C139.958 47.8182 139.898 47.6908 139.848 47.5459C139.818 47.4609 139.793 47.3785 139.773 47.2985C139.473 47.6183 139.078 47.8682 138.589 48.0481C138.099 48.223 137.564 48.3104 136.985 48.3104ZM137.607 46.5715C137.967 46.5715 138.306 46.5065 138.626 46.3766C138.946 46.2417 139.206 46.0318 139.406 45.747C139.606 45.4622 139.706 45.0899 139.706 44.6302V44.5627C139.421 44.6377 139.118 44.7002 138.799 44.7501C138.479 44.7951 138.162 44.8351 137.847 44.8701C137.337 44.92 136.955 45.0075 136.7 45.1324C136.45 45.2523 136.325 45.4572 136.325 45.747C136.325 46.2967 136.752 46.5715 137.607 46.5715ZM147.436 48.3104C147.132 48.3104 146.817 48.2829 146.492 48.228C146.172 48.178 145.875 48.0756 145.6 47.9206C145.325 47.7607 145.1 47.5284 144.925 47.2236C144.756 46.9188 144.671 46.5165 144.671 46.0168V41.9844H142.834V40.1855H143.351C143.756 40.1855 144.051 40.158 144.236 40.103C144.426 40.0481 144.546 39.9082 144.596 39.6833C144.646 39.4534 144.671 39.0812 144.671 38.5665V37.5621H147.002V40.1855H149.318V41.9844H147.002V45.3573C147.002 45.702 147.042 45.9819 147.122 46.1967C147.207 46.4116 147.414 46.519 147.744 46.519C147.909 46.519 148.064 46.504 148.208 46.4741C148.358 46.4441 148.471 46.4141 148.546 46.3841V48.1305C148.441 48.1755 148.293 48.2155 148.103 48.2504C147.914 48.2904 147.691 48.3104 147.436 48.3104ZM151.783 38.8888C151.423 38.8888 151.109 38.7939 150.839 38.604C150.574 38.4141 150.442 38.1468 150.442 37.802C150.442 37.4522 150.574 37.1824 150.839 36.9925C151.109 36.8026 151.423 36.7077 151.783 36.7077C152.143 36.7077 152.458 36.8026 152.728 36.9925C152.997 37.1824 153.132 37.4522 153.132 37.802C153.132 38.1518 152.997 38.4216 152.728 38.6115C152.458 38.7964 152.143 38.8888 151.783 38.8888ZM150.636 48.1455V40.1855H152.938V48.1455H150.636ZM158.637 48.3179C157.778 48.3179 157.021 48.1405 156.366 47.7857C155.712 47.431 155.199 46.9438 154.83 46.3241C154.465 45.6995 154.282 44.98 154.282 44.1655C154.282 43.356 154.465 42.6414 154.83 42.0218C155.199 41.3972 155.712 40.9125 156.366 40.5677C157.021 40.218 157.778 40.0431 158.637 40.0431C159.497 40.0431 160.254 40.218 160.908 40.5677C161.563 40.9125 162.073 41.3972 162.437 42.0218C162.807 42.6414 162.992 43.356 162.992 44.1655C162.992 44.98 162.807 45.6995 162.437 46.3241C162.073 46.9438 161.563 47.431 160.908 47.7857C160.254 48.1405 159.497 48.3179 158.637 48.3179ZM158.637 46.4741C159.242 46.4741 159.727 46.2642 160.091 45.8444C160.456 45.4247 160.638 44.8651 160.638 44.1655C160.638 43.4659 160.456 42.9113 160.091 42.5015C159.727 42.0918 159.242 41.8869 158.637 41.8869C158.033 41.8869 157.548 42.0918 157.183 42.5015C156.818 42.9113 156.636 43.4659 156.636 44.1655C156.636 44.8651 156.818 45.4247 157.183 45.8444C157.548 46.2642 158.033 46.4741 158.637 46.4741ZM164.443 48.1455V40.1855H166.767V41.4072C167.072 40.9775 167.462 40.6427 167.936 40.4028C168.411 40.158 168.931 40.0356 169.495 40.0356C170.475 40.0356 171.197 40.3229 171.661 40.8975C172.131 41.4722 172.366 42.2267 172.366 43.1611V48.1455H170.05V43.8282C170.05 43.4984 170.007 43.1986 169.922 42.9288C169.838 42.6539 169.683 42.4341 169.458 42.2692C169.238 42.1043 168.923 42.0218 168.513 42.0218C167.974 42.0218 167.546 42.2042 167.232 42.569C166.922 42.9288 166.767 43.3985 166.767 43.9781V48.1455H164.443Z" fill="#0D3D42"/>
<rect x="24.5" y="88.5" width="101" height="170" rx="10.5" fill="#F0F5ED" stroke="#0D3D42" stroke-width="3"/>
<rect x="135.5" y="88.5" width="101" height="85" rx="10.5" fill="#F0F5ED" stroke="#0D3D42" stroke-width="3"/>
<rect x="24.5" y="405.5" width="101" height="85" rx="10.5" fill="#F0F5ED" stroke="#0D3D42" stroke-width="3"/>
<rect x="135.5" y="183.5" width="101" height="150" rx="10.5" fill="#F0F5ED" stroke="#0D3D42" stroke-width="3"/>
<rect x="24.5" y="268.5" width="101" height="127" rx="10.5" fill="#F0F5ED" stroke="#0D3D42" stroke-width="3"/>
<rect x="135.5" y="343.5" width="101" height="127" rx="10.5" fill="#F0F5ED" stroke="#0D3D42" stroke-width="3"/>
<rect x="1.5" y="1.5" width="256.837" height="438.391" rx="10.5" stroke="#0D3D42" stroke-width="3"/>
</g>
<defs>
<clipPath id="clip0">
<rect width="260" height="441.67" rx="12" fill="white"/>
</clipPath>
</defs>
</svg>
