<svg width="260" height="442" viewBox="0 0 260 442" fill="none" xmlns="http://www.w3.org/2000/svg">
<g clip-path="url(#clip0)">
<rect width="260" height="441.67" rx="12" fill="white"/>
<rect x="24.5" y="88.5" width="212" height="137" rx="10.5" fill="white" stroke="#0D3D42" stroke-width="3"/>
<path d="M24.5 99C24.5 93.201 29.201 88.5 35 88.5H226C231.799 88.5 236.5 93.201 236.5 99V181.595H24.5V99Z" fill="white" stroke="#0D3D42" stroke-width="3"/>
<rect x="33.9895" y="190.55" width="140.89" height="10.1623" rx="3" fill="#E9F0E8"/>
<rect x="33.9895" y="205.461" width="65.9659" height="10.1623" rx="3" fill="#E9F0E8"/>
<rect x="102.923" y="205.898" width="35.9655" height="10.1623" rx="3" fill="#E9F0E8"/>
<rect x="141.886" y="205.898" width="65.9368" height="10.1623" rx="3" fill="#E9F0E8"/>
<rect x="24.5" y="238.5" width="212" height="47" rx="10.5" fill="white" stroke="#0D3D42" stroke-width="3"/>
<rect x="65.7178" y="250.072" width="92.0265" height="10.0552" rx="3" fill="#E9F0E8"/>
<rect x="65.7178" y="264.826" width="65.9659" height="10.0552" rx="3" fill="#E9F0E8"/>
<rect x="134.893" y="264.826" width="61.0795" height="10.0552" rx="3" fill="#E9F0E8"/>
<ellipse cx="47.0198" cy="262.181" rx="13.0303" ry="13.1148" fill="#E9F0E8"/>
<rect x="24.5" y="298.5" width="212" height="47" rx="10.5" fill="white" stroke="#0D3D42" stroke-width="3"/>
<rect x="65.7178" y="310.072" width="92.0265" height="10.0552" rx="3" fill="#E9F0E8"/>
<rect x="65.7178" y="324.826" width="65.9659" height="10.0552" rx="3" fill="#E9F0E8"/>
<rect x="134.893" y="324.826" width="61.0795" height="10.0552" rx="3" fill="#E9F0E8"/>
<ellipse cx="47.0198" cy="322.181" rx="13.0303" ry="13.1148" fill="#E9F0E8"/>
<rect x="24.5" y="358.5" width="212" height="47" rx="10.5" fill="white" stroke="#0D3D42" stroke-width="3"/>
<rect x="65.7178" y="370.072" width="92.0265" height="10.0552" rx="3" fill="#E9F0E8"/>
<rect x="65.7178" y="384.826" width="65.9659" height="10.0552" rx="3" fill="#E9F0E8"/>
<rect x="134.893" y="384.826" width="61.0795" height="10.0552" rx="3" fill="#E9F0E8"/>
<ellipse cx="47.0198" cy="382.181" rx="13.0303" ry="13.1148" fill="#E9F0E8"/>
<rect x="24.5" y="418.5" width="212" height="47" rx="10.5" fill="white" stroke="#0D3D42" stroke-width="3"/>
<rect x="65.7178" y="430.072" width="92.0265" height="10.0552" rx="3" fill="#E9F0E8"/>
<ellipse cx="47.0198" cy="442.181" rx="13.0303" ry="13.1148" fill="#E9F0E8"/>
<rect x="27" y="25" width="217" height="47" rx="2" fill="#0D3D42"/>
<rect x="24" y="22" width="215" height="45" rx="1" fill="#A7F9D1" stroke="#0D3D42" stroke-width="2"/>
<path d="M91.3788 48V36.9444H94.954C95.9384 36.9444 96.8004 37.1768 97.5399 37.6415C98.2845 38.1062 98.8641 38.7533 99.2788 39.5828C99.6936 40.4122 99.9009 41.3691 99.9009 42.4535C99.9009 43.5428 99.6936 44.5047 99.2788 45.3392C98.8641 46.1686 98.2845 46.8207 97.5399 47.2954C96.8004 47.7651 95.9384 48 94.954 48H91.3788ZM94.6542 38.7433H93.7173V46.2011H94.6542C95.1939 46.2011 95.6811 46.0512 96.1158 45.7514C96.5555 45.4466 96.9028 45.0144 97.1577 44.4547C97.4125 43.8951 97.5399 43.228 97.5399 42.4535C97.5399 41.6839 97.4125 41.0219 97.1577 40.4672C96.9028 39.9126 96.5555 39.4878 96.1158 39.193C95.6811 38.8932 95.1939 38.7433 94.6542 38.7433ZM109.628 45.4891C109.588 45.9388 109.398 46.371 109.059 46.7858C108.724 47.1955 108.249 47.5303 107.635 47.7901C107.025 48.05 106.288 48.1799 105.423 48.1799C104.544 48.1799 103.777 48.005 103.122 47.6552C102.468 47.3004 101.961 46.8132 101.601 46.1936C101.241 45.569 101.061 44.8495 101.061 44.035C101.061 43.2105 101.244 42.4884 101.608 41.8688C101.978 41.2442 102.49 40.7595 103.145 40.4147C103.804 40.065 104.567 39.8901 105.431 39.8901C106.315 39.8901 107.08 40.0675 107.725 40.4222C108.369 40.772 108.866 41.2642 109.216 41.8988C109.566 42.5284 109.741 43.263 109.741 44.1024C109.741 44.3623 109.731 44.5671 109.711 44.7171H103.415C103.52 45.2567 103.747 45.6765 104.097 45.9763C104.447 46.2711 104.921 46.4185 105.521 46.4185C106.146 46.4185 106.595 46.3186 106.87 46.1187C107.15 45.9138 107.305 45.7039 107.335 45.4891H109.628ZM105.461 41.629C104.926 41.629 104.484 41.7639 104.134 42.0337C103.789 42.3036 103.557 42.6858 103.437 43.1805H107.365C107.33 42.7858 107.157 42.4285 106.848 42.1087C106.543 41.7889 106.081 41.629 105.461 41.629ZM118.252 40.04L115.838 48H112.705L110.239 40.04H112.638L114.272 46.5609L115.846 40.04H118.252ZM127.239 45.4891C127.199 45.9388 127.01 46.371 126.67 46.7858C126.335 47.1955 125.86 47.5303 125.246 47.7901C124.636 48.05 123.899 48.1799 123.035 48.1799C122.155 48.1799 121.388 48.005 120.733 47.6552C120.079 47.3004 119.572 46.8132 119.212 46.1936C118.852 45.569 118.672 44.8495 118.672 44.035C118.672 43.2105 118.855 42.4884 119.219 41.8688C119.589 41.2442 120.101 40.7595 120.756 40.4147C121.416 40.065 122.178 39.8901 123.042 39.8901C123.926 39.8901 124.691 40.0675 125.336 40.4222C125.98 40.772 126.477 41.2642 126.827 41.8988C127.177 42.5284 127.352 43.263 127.352 44.1024C127.352 44.3623 127.342 44.5671 127.322 44.7171H121.026C121.131 45.2567 121.358 45.6765 121.708 45.9763C122.058 46.2711 122.532 46.4185 123.132 46.4185C123.757 46.4185 124.206 46.3186 124.481 46.1187C124.761 45.9138 124.916 45.7039 124.946 45.4891H127.239ZM123.072 41.629C122.537 41.629 122.095 41.7639 121.745 42.0337C121.401 42.3036 121.168 42.6858 121.048 43.1805H124.976C124.941 42.7858 124.768 42.4285 124.459 42.1087C124.154 41.7889 123.692 41.629 123.072 41.629ZM131.21 36.2848V48H128.916V36.2848H131.21ZM137.051 48.1724C136.192 48.1724 135.435 47.995 134.78 47.6402C134.126 47.2854 133.614 46.7983 133.244 46.1786C132.879 45.554 132.697 44.8345 132.697 44.02C132.697 43.2105 132.879 42.4959 133.244 41.8763C133.614 41.2517 134.126 40.767 134.78 40.4222C135.435 40.0725 136.192 39.8976 137.051 39.8976C137.911 39.8976 138.668 40.0725 139.323 40.4222C139.977 40.767 140.487 41.2517 140.852 41.8763C141.221 42.4959 141.406 43.2105 141.406 44.02C141.406 44.8345 141.221 45.554 140.852 46.1786C140.487 46.7983 139.977 47.2854 139.323 47.6402C138.668 47.995 137.911 48.1724 137.051 48.1724ZM137.051 46.3285C137.656 46.3285 138.141 46.1187 138.506 45.6989C138.87 45.2792 139.053 44.7196 139.053 44.02C139.053 43.3204 138.87 42.7658 138.506 42.356C138.141 41.9463 137.656 41.7414 137.051 41.7414C136.447 41.7414 135.962 41.9463 135.597 42.356C135.233 42.7658 135.05 43.3204 135.05 44.02C135.05 44.7196 135.233 45.2792 135.597 45.6989C135.962 46.1187 136.447 46.3285 137.051 46.3285ZM142.858 51.2755V40.04H145.189V40.9544C145.503 40.6246 145.871 40.3648 146.29 40.1749C146.715 39.985 147.167 39.8901 147.647 39.8901C148.287 39.8901 148.886 40.05 149.446 40.3698C150.011 40.6846 150.465 41.1468 150.81 41.7564C151.16 42.366 151.335 43.1081 151.335 43.9825C151.335 44.8969 151.165 45.6665 150.825 46.2911C150.485 46.9107 150.036 47.3804 149.476 47.7002C148.916 48.02 148.307 48.1799 147.647 48.1799C147.167 48.1799 146.715 48.08 146.29 47.8801C145.871 47.6802 145.503 47.4079 145.189 47.0631V51.2755H142.858ZM145.189 44.3273C145.189 44.6971 145.279 45.0219 145.459 45.3017C145.638 45.5765 145.868 45.7889 146.148 45.9388C146.433 46.0887 146.733 46.1636 147.048 46.1636C147.557 46.1636 147.999 45.9888 148.374 45.639C148.754 45.2842 148.944 44.732 148.944 43.9825C148.944 43.233 148.756 42.6883 148.382 42.3485C148.007 42.0037 147.562 41.8314 147.048 41.8314C146.738 41.8314 146.44 41.9063 146.156 42.0562C145.871 42.2011 145.638 42.4085 145.459 42.6783C145.279 42.9482 145.189 43.2705 145.189 43.6452V44.2374V44.3273ZM160.983 45.4891C160.943 45.9388 160.753 46.371 160.413 46.7858C160.079 47.1955 159.604 47.5303 158.989 47.7901C158.38 48.05 157.643 48.1799 156.778 48.1799C155.899 48.1799 155.132 48.005 154.477 47.6552C153.822 47.3004 153.315 46.8132 152.955 46.1936C152.596 45.569 152.416 44.8495 152.416 44.035C152.416 43.2105 152.598 42.4884 152.963 41.8688C153.333 41.2442 153.845 40.7595 154.5 40.4147C155.159 40.065 155.921 39.8901 156.786 39.8901C157.67 39.8901 158.435 40.0675 159.079 40.4222C159.724 40.772 160.221 41.2642 160.571 41.8988C160.92 42.5284 161.095 43.263 161.095 44.1024C161.095 44.3623 161.085 44.5671 161.065 44.7171H154.769C154.874 45.2567 155.102 45.6765 155.451 45.9763C155.801 46.2711 156.276 46.4185 156.876 46.4185C157.5 46.4185 157.95 46.3186 158.225 46.1187C158.505 45.9138 158.659 45.7039 158.689 45.4891H160.983ZM156.816 41.629C156.281 41.629 155.839 41.7639 155.489 42.0337C155.144 42.3036 154.912 42.6858 154.792 43.1805H158.719C158.684 42.7858 158.512 42.4285 158.202 42.1087C157.897 41.7889 157.435 41.629 156.816 41.629ZM162.547 48V40.04H164.879V41.1193C165.108 40.7445 165.413 40.4472 165.793 40.2274C166.178 40.0025 166.637 39.8901 167.172 39.8901C167.492 39.8901 167.742 39.9151 167.922 39.965C168.107 40.01 168.221 40.045 168.266 40.07L167.884 42.1537C167.839 42.1287 167.739 42.0887 167.584 42.0337C167.429 41.9788 167.23 41.9513 166.985 41.9513C166.45 41.9513 166.028 42.0662 165.718 42.2961C165.413 42.5259 165.196 42.8182 165.066 43.173C164.941 43.5228 164.879 43.8801 164.879 44.2448V48H162.547Z" fill="#0D3D42"/>
<rect x="1.24971" y="1.24922" width="257.339" height="438.892" rx="10.7508" stroke="#0D3D42" stroke-width="2.49844"/>
</g>
<defs>
<clipPath id="clip0">
<rect width="260" height="441.67" rx="12" fill="white"/>
</clipPath>
</defs>
</svg>
