<svg width="260" height="442" viewBox="0 0 260 442" fill="none" xmlns="http://www.w3.org/2000/svg">
<g clip-path="url(#clip0)">
<rect x="1.24763" y="1.24922" width="257.339" height="438.892" rx="8.74453" fill="white" stroke="#062428" stroke-width="2.49844"/>
<rect x="24" y="23" width="217" height="47" rx="2" fill="#062428"/>
<rect x="21" y="20" width="215" height="45" rx="1" fill="#F5CCF7" stroke="#062428" stroke-width="2"/>
<path d="M88.6461 48.145L87.0271 37.0894H89.4181L90.4675 46.4736L92.1314 37.0894H95.0321L96.6961 46.4736L97.7379 37.0894H100.129L98.5099 48.145H94.9422L93.5855 39.4654L92.2139 48.145H88.6461ZM105.085 48.3174C104.225 48.3174 103.468 48.14 102.814 47.7852C102.159 47.4305 101.647 46.9433 101.277 46.3237C100.912 45.699 100.73 44.9795 100.73 44.165C100.73 43.3555 100.912 42.641 101.277 42.0213C101.647 41.3967 102.159 40.912 102.814 40.5673C103.468 40.2175 104.225 40.0426 105.085 40.0426C105.944 40.0426 106.701 40.2175 107.356 40.5673C108.01 40.912 108.52 41.3967 108.885 42.0213C109.255 42.641 109.439 43.3555 109.439 44.165C109.439 44.9795 109.255 45.699 108.885 46.3237C108.52 46.9433 108.01 47.4305 107.356 47.7852C106.701 48.14 105.944 48.3174 105.085 48.3174ZM105.085 46.4736C105.689 46.4736 106.174 46.2637 106.539 45.844C106.903 45.4242 107.086 44.8646 107.086 44.165C107.086 43.4654 106.903 42.9108 106.539 42.501C106.174 42.0913 105.689 41.8864 105.085 41.8864C104.48 41.8864 103.995 42.0913 103.631 42.501C103.266 42.9108 103.083 43.4654 103.083 44.165C103.083 44.8646 103.266 45.4242 103.631 45.844C103.995 46.2637 104.48 46.4736 105.085 46.4736ZM110.891 48.145V40.185H113.222V41.2643C113.452 40.8896 113.756 40.5922 114.136 40.3724C114.521 40.1475 114.981 40.0351 115.515 40.0351C115.835 40.0351 116.085 40.0601 116.265 40.11C116.45 40.155 116.565 40.19 116.61 40.215L116.227 42.2987C116.182 42.2737 116.083 42.2337 115.928 42.1787C115.773 42.1238 115.573 42.0963 115.328 42.0963C114.793 42.0963 114.371 42.2112 114.061 42.4411C113.756 42.6709 113.539 42.9633 113.409 43.318C113.284 43.6678 113.222 44.0251 113.222 44.3899V48.145H110.891ZM117.786 48.145V36.4298H119.99V42.4936L122.568 40.185H125.416L122.148 43.1082L125.349 48.145H122.905L120.679 44.4198L119.99 45.042V48.145H117.786ZM126.365 51.4205V40.185H128.696V41.0994C129.01 40.7696 129.378 40.5098 129.797 40.3199C130.222 40.13 130.674 40.0351 131.154 40.0351C131.794 40.0351 132.393 40.195 132.953 40.5148C133.518 40.8296 133.972 41.2918 134.317 41.9014C134.667 42.511 134.842 43.2531 134.842 44.1275C134.842 45.042 134.672 45.8115 134.332 46.4361C133.992 47.0557 133.543 47.5254 132.983 47.8452C132.423 48.165 131.814 48.3249 131.154 48.3249C130.674 48.3249 130.222 48.225 129.797 48.0251C129.378 47.8252 129.01 47.5529 128.696 47.2081V51.4205H126.365ZM128.696 44.4723C128.696 44.8421 128.785 45.1669 128.965 45.4467C129.145 45.7215 129.375 45.9339 129.655 46.0838C129.94 46.2337 130.24 46.3087 130.554 46.3087C131.064 46.3087 131.506 46.1338 131.881 45.784C132.261 45.4292 132.451 44.8771 132.451 44.1275C132.451 43.378 132.263 42.8333 131.889 42.4936C131.514 42.1488 131.069 41.9764 130.554 41.9764C130.245 41.9764 129.947 42.0513 129.662 42.2012C129.378 42.3461 129.145 42.5535 128.965 42.8233C128.785 43.0932 128.696 43.4155 128.696 43.7902V44.3824V44.4723ZM138.696 36.4298V48.145H136.402V36.4298H138.696ZM143.248 48.3099C142.374 48.3099 141.657 48.105 141.097 47.6953C140.537 47.2856 140.258 46.7059 140.258 45.9564C140.258 45.3917 140.413 44.932 140.722 44.5773C141.032 44.2225 141.442 43.9526 141.952 43.7678C142.466 43.5779 143.023 43.453 143.623 43.393C144.493 43.313 145.095 43.2381 145.429 43.1681C145.764 43.0932 145.932 42.9683 145.932 42.7934V42.7784C145.932 42.4836 145.789 42.2512 145.504 42.0813C145.225 41.9114 144.832 41.8265 144.328 41.8265C143.228 41.8265 142.679 42.2162 142.679 42.9957H140.393C140.393 42.3611 140.565 41.824 140.91 41.3842C141.26 40.9395 141.732 40.6047 142.326 40.3799C142.921 40.15 143.593 40.0351 144.343 40.0351C145.042 40.0351 145.689 40.1425 146.284 40.3574C146.879 40.5673 147.356 40.8871 147.715 41.3168C148.08 41.7415 148.263 42.2787 148.263 42.9283V46.3686C148.263 46.5735 148.268 46.7709 148.278 46.9608C148.293 47.1506 148.323 47.3205 148.368 47.4704C148.418 47.6453 148.48 47.7902 148.555 47.9052C148.63 48.0201 148.692 48.1 148.742 48.145H146.456C146.421 48.105 146.366 48.0326 146.291 47.9277C146.221 47.8177 146.161 47.6903 146.111 47.5454C146.082 47.4604 146.057 47.378 146.037 47.298C145.737 47.6178 145.342 47.8677 144.852 48.0476C144.363 48.2225 143.828 48.3099 143.248 48.3099ZM143.87 46.571C144.23 46.571 144.57 46.506 144.89 46.3761C145.21 46.2412 145.469 46.0313 145.669 45.7465C145.869 45.4617 145.969 45.0894 145.969 44.6297V44.5623C145.684 44.6372 145.382 44.6997 145.062 44.7496C144.742 44.7946 144.425 44.8346 144.11 44.8696C143.601 44.9195 143.218 45.007 142.963 45.1319C142.714 45.2518 142.589 45.4567 142.589 45.7465C142.589 46.2962 143.016 46.571 143.87 46.571ZM153.973 48.3249C153.099 48.3249 152.332 48.15 151.672 47.8002C151.017 47.4455 150.508 46.9558 150.143 46.3312C149.778 45.7015 149.596 44.972 149.596 44.1425C149.596 43.313 149.778 42.591 150.143 41.9764C150.508 41.3618 151.017 40.8846 151.672 40.5448C152.332 40.205 153.099 40.0351 153.973 40.0351C154.628 40.0351 155.205 40.1325 155.704 40.3274C156.209 40.5173 156.631 40.7696 156.971 41.0844C157.316 41.3942 157.576 41.739 157.751 42.1188C157.926 42.4936 158.013 42.8658 158.013 43.2356V43.2956H155.712C155.712 43.2556 155.704 43.1981 155.689 43.1232C155.629 42.8084 155.46 42.526 155.18 42.2762C154.905 42.0263 154.498 41.9014 153.958 41.9014C153.383 41.9014 152.904 42.0938 152.519 42.4786C152.139 42.8583 151.949 43.413 151.949 44.1425C151.949 44.8621 152.139 45.4292 152.519 45.844C152.904 46.2537 153.383 46.4586 153.958 46.4586C154.548 46.4586 154.977 46.3262 155.247 46.0613C155.517 45.7915 155.672 45.4692 155.712 45.0944H158.013C158.013 45.4692 157.926 45.8465 157.751 46.2262C157.581 46.606 157.326 46.9533 156.986 47.2681C156.646 47.5829 156.224 47.8377 155.719 48.0326C155.22 48.2275 154.638 48.3249 153.973 48.3249ZM167.664 45.6341C167.624 46.0838 167.434 46.516 167.094 46.9308C166.759 47.3405 166.285 47.6753 165.67 47.9352C165.06 48.195 164.323 48.3249 163.459 48.3249C162.579 48.3249 161.812 48.15 161.158 47.8002C160.503 47.4455 159.996 46.9583 159.636 46.3386C159.277 45.714 159.097 44.9945 159.097 44.18C159.097 43.3555 159.279 42.6335 159.644 42.0139C160.014 41.3892 160.526 40.9045 161.18 40.5598C161.84 40.21 162.602 40.0351 163.466 40.0351C164.351 40.0351 165.115 40.2125 165.76 40.5673C166.405 40.917 166.902 41.4092 167.252 42.0438C167.601 42.6734 167.776 43.408 167.776 44.2475C167.776 44.5073 167.766 44.7122 167.746 44.8621H161.45C161.555 45.4017 161.782 45.8215 162.132 46.1213C162.482 46.4161 162.957 46.5635 163.556 46.5635C164.181 46.5635 164.631 46.4636 164.906 46.2637C165.185 46.0588 165.34 45.849 165.37 45.6341H167.664ZM163.496 41.774C162.962 41.774 162.52 41.9089 162.17 42.1787C161.825 42.4486 161.593 42.8308 161.473 43.3255H165.4C165.365 42.9308 165.193 42.5735 164.883 42.2537C164.578 41.9339 164.116 41.774 163.496 41.774Z" fill="#0D3D42"/>
<path d="M22.1992 249C22.1992 243.201 26.9002 238.5 32.6992 238.5H223.699C229.498 238.5 234.199 243.201 234.199 249V439.5H22.1992V249Z" fill="white" stroke="#062428" stroke-width="3"/>
<rect x="63.417" y="250.072" width="92.0265" height="10.0552" rx="3" fill="#D2D6DB"/>
<rect x="63.417" y="264.826" width="65.9659" height="10.0552" rx="3" fill="#D2D6DB"/>
<rect x="132.592" y="264.826" width="61.0795" height="10.0552" rx="3" fill="#D2D6DB"/>
<ellipse cx="44.7295" cy="262.181" rx="13.0303" ry="13.1148" fill="#D2D6DB"/>
<rect x="31.6992" y="291" width="194.045" height="17.4891" rx="2.49844" fill="#D2D6DB"/>
<rect x="31.6992" y="315.151" width="194.045" height="17.4891" rx="2.49844" fill="#D2D6DB"/>
<rect x="31.6992" y="339.303" width="194.045" height="17.4891" rx="2.49844" fill="#D2D6DB"/>
<rect x="31.6992" y="363.455" width="194.045" height="17.4891" rx="2.49844" fill="#D2D6DB"/>
<rect x="31.6992" y="387.606" width="194.045" height="17.4891" rx="2.49844" fill="#D2D6DB"/>
<rect x="31.6992" y="411.758" width="194.045" height="17.4891" rx="2.49844" fill="#D2D6DB"/>
<rect x="22.1992" y="88.5" width="212" height="137" rx="10.5" fill="white" stroke="#062428" stroke-width="3"/>
<path d="M22.1992 99C22.1992 93.201 26.9002 88.5 32.6992 88.5H223.699C229.498 88.5 234.199 93.201 234.199 99V181.595H22.1992V99Z" fill="white" stroke="#062428" stroke-width="3"/>
<rect x="31.6887" y="190.55" width="140.89" height="10.1623" rx="3" fill="#D2D6DB"/>
<rect x="31.6887" y="205.461" width="65.9659" height="10.1623" rx="3" fill="#D2D6DB"/>
<rect x="100.623" y="205.898" width="35.9655" height="10.1623" rx="3" fill="#D2D6DB"/>
<rect x="139.585" y="205.898" width="65.9368" height="10.1623" rx="3" fill="#D2D6DB"/>
</g>
<defs>
<clipPath id="clip0">
<rect width="260" height="441.67" rx="12" fill="white"/>
</clipPath>
</defs>
</svg>
