<svg width="260" height="442" viewBox="0 0 260 442" fill="none" xmlns="http://www.w3.org/2000/svg">
<g clip-path="url(#clip0)">
<rect width="260" height="441.67" rx="12" fill="white"/>
<rect x="24" y="21" width="217" height="47" rx="2" fill="#F5CCF7"/>
<rect x="21" y="18" width="215" height="45" rx="1" fill="#0D3D42" stroke="#F5CCF7" stroke-width="2"/>
<path d="M76.7449 39.8153H72.9448V44.3125H70.6212V33.2569H77.412V35.0558H72.9448V38.0164H76.7449V39.8153ZM81.1148 44.4774C80.2403 44.4774 79.5233 44.2725 78.9636 43.8628C78.404 43.453 78.1241 42.8734 78.1241 42.1239C78.1241 41.5592 78.279 41.0995 78.5889 40.7447C78.8987 40.39 79.3084 40.1201 79.8181 39.9352C80.3328 39.7454 80.8899 39.6204 81.4895 39.5605C82.359 39.4805 82.9611 39.4056 83.2959 39.3356C83.6307 39.2607 83.7981 39.1357 83.7981 38.9608V38.9459C83.7981 38.651 83.6557 38.4187 83.3709 38.2488C83.091 38.0789 82.6988 37.994 82.1941 37.994C81.0948 37.994 80.5451 38.3837 80.5451 39.1632H78.2591C78.2591 38.5286 78.4314 37.9915 78.7762 37.5517C79.126 37.107 79.5982 36.7722 80.1928 36.5474C80.7875 36.3175 81.4596 36.2026 82.2091 36.2026C82.9086 36.2026 83.5557 36.31 84.1504 36.5249C84.745 36.7347 85.2222 37.0545 85.582 37.4843C85.9468 37.909 86.1291 38.4462 86.1291 39.0958V42.5361C86.1291 42.741 86.1341 42.9384 86.1441 43.1282C86.1591 43.3181 86.1891 43.488 86.2341 43.6379C86.284 43.8128 86.3465 43.9577 86.4215 44.0726C86.4964 44.1876 86.5589 44.2675 86.6088 44.3125H84.3228C84.2878 44.2725 84.2328 44.2001 84.1579 44.0951C84.0879 43.9852 84.0279 43.8578 83.978 43.7129C83.948 43.6279 83.923 43.5455 83.903 43.4655C83.6032 43.7853 83.2085 44.0352 82.7188 44.2151C82.2291 44.39 81.6944 44.4774 81.1148 44.4774ZM81.7369 42.7385C82.0967 42.7385 82.4364 42.6735 82.7562 42.5436C83.076 42.4087 83.3359 42.1988 83.5358 41.914C83.7356 41.6292 83.8356 41.2569 83.8356 40.7972V40.7297C83.5507 40.8047 83.2484 40.8672 82.9286 40.9171C82.6088 40.9621 82.2915 41.0021 81.9767 41.037C81.4671 41.087 81.0848 41.1745 80.8299 41.2994C80.5801 41.4193 80.4552 41.6242 80.4552 41.914C80.4552 42.4637 80.8824 42.7385 81.7369 42.7385ZM87.8295 44.3125V36.3525H90.1531V37.4093C90.4129 37.0346 90.7452 36.7397 91.1499 36.5249C91.5547 36.31 92.0169 36.2026 92.5366 36.2026C93.2012 36.2026 93.7183 36.3475 94.0881 36.6373C94.4629 36.9221 94.7302 37.2944 94.8901 37.7541C95.13 37.2794 95.4697 36.9021 95.9095 36.6223C96.3492 36.3425 96.8714 36.2026 97.476 36.2026C98.1256 36.2026 98.6378 36.34 99.0125 36.6148C99.3923 36.8846 99.6621 37.2494 99.822 37.7091C99.9869 38.1688 100.069 38.681 100.069 39.2457V44.3125H97.7458V39.9053C97.7458 39.6154 97.7208 39.3406 97.6709 39.0808C97.6209 38.8159 97.511 38.6011 97.3411 38.4362C97.1712 38.2713 96.9038 38.1888 96.5391 38.1888C96.1943 38.1888 95.917 38.2813 95.7071 38.4662C95.4972 38.651 95.3448 38.8934 95.2499 39.1932C95.1549 39.493 95.1075 39.8128 95.1075 40.1526V44.3125H92.7989V39.9202C92.7989 39.6504 92.7764 39.3831 92.7315 39.1182C92.6865 38.8534 92.579 38.6336 92.4092 38.4587C92.2393 38.2788 91.9719 38.1888 91.6072 38.1888C91.2624 38.1888 90.9825 38.2838 90.7677 38.4737C90.5578 38.6585 90.4029 38.9034 90.303 39.2082C90.203 39.513 90.1531 39.8428 90.1531 40.1976V44.3125H87.8295ZM102.867 35.0558C102.507 35.0558 102.192 34.9608 101.922 34.771C101.658 34.5811 101.525 34.3138 101.525 33.969C101.525 33.6192 101.658 33.3494 101.922 33.1595C102.192 32.9696 102.507 32.8747 102.867 32.8747C103.227 32.8747 103.541 32.9696 103.811 33.1595C104.081 33.3494 104.216 33.6192 104.216 33.969C104.216 34.3187 104.081 34.5886 103.811 34.7785C103.541 34.9633 103.227 35.0558 102.867 35.0558ZM101.72 44.3125V36.3525H104.021V44.3125H101.72ZM108.139 32.5973V44.3125H105.846V32.5973H108.139ZM110.653 47.7528C110.403 47.7528 110.178 47.7429 109.978 47.7229C109.784 47.7029 109.661 47.6854 109.611 47.6704V45.909C109.676 45.939 109.789 45.9615 109.948 45.9765C110.113 45.9964 110.288 46.0064 110.473 46.0064C110.843 46.0064 111.155 45.899 111.41 45.6841C111.67 45.4693 111.86 45.182 111.98 44.8222L112.115 44.4174L109.371 36.3525H111.792L113.381 42.3637L114.918 36.3525H117.309L114.573 44.7098C114.368 45.3394 114.116 45.8815 113.816 46.3362C113.516 46.7959 113.116 47.1457 112.617 47.3856C112.117 47.6304 111.462 47.7528 110.653 47.7528ZM125.854 44.4849C125.089 44.4849 124.402 44.37 123.793 44.1401C123.183 43.9103 122.698 43.573 122.339 43.1282C121.984 42.6785 121.806 42.1289 121.806 41.4793C121.806 40.8097 122.024 40.235 122.458 39.7553C122.898 39.2756 123.523 38.7935 124.332 38.3088C124.032 37.924 123.755 37.4993 123.5 37.0346C123.25 36.5648 123.126 36.0727 123.126 35.558C123.126 35.1133 123.253 34.7085 123.508 34.3437C123.768 33.979 124.122 33.6891 124.572 33.4743C125.022 33.2594 125.539 33.152 126.124 33.152C126.713 33.152 127.225 33.2594 127.66 33.4743C128.1 33.6891 128.44 33.9765 128.68 34.3362C128.919 34.696 129.039 35.0983 129.039 35.543C129.039 36.2076 128.852 36.7822 128.477 37.2669C128.107 37.7516 127.578 38.2163 126.888 38.661L128.979 41.1944C129.144 40.9296 129.272 40.6348 129.362 40.31C129.457 39.9852 129.504 39.6054 129.504 39.1707H131.393C131.393 39.9502 131.278 40.6148 131.048 41.1645C130.818 41.7141 130.536 42.1913 130.201 42.5961C130.326 42.691 130.441 42.7535 130.546 42.7835C130.651 42.8084 130.743 42.8209 130.823 42.8209C130.938 42.8209 131.056 42.8059 131.176 42.776C131.295 42.746 131.383 42.721 131.438 42.701V44.3125C131.408 44.3225 131.31 44.3475 131.146 44.3875C130.986 44.4324 130.773 44.4549 130.508 44.4549C130.239 44.4549 129.951 44.3974 129.646 44.2825C129.347 44.1676 129.082 43.9852 128.852 43.7354C128.452 43.9702 128 44.1551 127.495 44.29C126.996 44.4199 126.448 44.4849 125.854 44.4849ZM125.044 35.6629C125.044 35.9277 125.119 36.2076 125.269 36.5024C125.424 36.7922 125.626 37.0995 125.876 37.4243C126.336 37.1245 126.671 36.8347 126.881 36.5549C127.096 36.27 127.203 35.9752 127.203 35.6704C127.203 35.3456 127.101 35.0958 126.896 34.9209C126.691 34.746 126.438 34.6585 126.139 34.6585C125.854 34.6585 125.599 34.746 125.374 34.9209C125.154 35.0908 125.044 35.3381 125.044 35.6629ZM123.943 41.3743C123.943 41.8041 124.132 42.1563 124.512 42.4312C124.892 42.701 125.347 42.8359 125.876 42.8359C126.256 42.8359 126.598 42.7984 126.903 42.7235C127.213 42.6435 127.49 42.5336 127.735 42.3937L125.374 39.568C124.904 39.8678 124.547 40.1551 124.302 40.4299C124.062 40.7048 123.943 41.0196 123.943 41.3743ZM143.134 39.8153H139.334V44.3125H137.01V33.2569H143.801V35.0558H139.334V38.0164H143.134V39.8153ZM145.011 44.3125V36.3525H147.342V37.4318C147.571 37.057 147.876 36.7597 148.256 36.5399C148.641 36.315 149.1 36.2026 149.635 36.2026C149.955 36.2026 150.205 36.2276 150.385 36.2775C150.57 36.3225 150.685 36.3575 150.729 36.3825L150.347 38.4662C150.302 38.4412 150.202 38.4012 150.047 38.3462C149.893 38.2913 149.693 38.2638 149.448 38.2638C148.913 38.2638 148.491 38.3787 148.181 38.6086C147.876 38.8384 147.659 39.1307 147.529 39.4855C147.404 39.8353 147.342 40.1926 147.342 40.5573V44.3125H145.011ZM152.962 35.0558C152.603 35.0558 152.288 34.9608 152.018 34.771C151.753 34.5811 151.621 34.3138 151.621 33.969C151.621 33.6192 151.753 33.3494 152.018 33.1595C152.288 32.9696 152.603 32.8747 152.962 32.8747C153.322 32.8747 153.637 32.9696 153.907 33.1595C154.177 33.3494 154.312 33.6192 154.312 33.969C154.312 34.3187 154.177 34.5886 153.907 34.7785C153.637 34.9633 153.322 35.0558 152.962 35.0558ZM151.816 44.3125V36.3525H154.117V44.3125H151.816ZM164.029 41.8016C163.989 42.2513 163.799 42.6835 163.459 43.0983C163.124 43.508 162.65 43.8428 162.035 44.1026C161.425 44.3625 160.688 44.4924 159.824 44.4924C158.945 44.4924 158.178 44.3175 157.523 43.9677C156.868 43.6129 156.361 43.1257 156.001 42.5061C155.642 41.8815 155.462 41.162 155.462 40.3475C155.462 39.523 155.644 38.8009 156.009 38.1813C156.379 37.5567 156.891 37.072 157.545 36.7272C158.205 36.3775 158.967 36.2026 159.831 36.2026C160.716 36.2026 161.48 36.38 162.125 36.7347C162.77 37.0845 163.267 37.5767 163.617 38.2113C163.966 38.8409 164.141 39.5755 164.141 40.4149C164.141 40.6748 164.131 40.8796 164.111 41.0296H157.815C157.92 41.5692 158.148 41.989 158.497 42.2888C158.847 42.5836 159.322 42.731 159.921 42.731C160.546 42.731 160.996 42.6311 161.271 42.4312C161.55 42.2263 161.705 42.0164 161.735 41.8016H164.029ZM159.861 37.9415C159.327 37.9415 158.885 38.0764 158.535 38.3462C158.19 38.6161 157.958 38.9983 157.838 39.493H161.765C161.73 39.0983 161.558 38.741 161.248 38.4212C160.943 38.1014 160.481 37.9415 159.861 37.9415ZM165.593 44.3125V36.3525H167.917V37.5742C168.222 37.1445 168.612 36.8097 169.086 36.5698C169.561 36.325 170.081 36.2026 170.645 36.2026C171.625 36.2026 172.347 36.4899 172.811 37.0645C173.281 37.6392 173.516 38.3937 173.516 39.3281V44.3125H171.2V39.9952C171.2 39.6654 171.157 39.3656 171.072 39.0958C170.988 38.8209 170.833 38.6011 170.608 38.4362C170.388 38.2713 170.073 38.1888 169.663 38.1888C169.124 38.1888 168.696 38.3712 168.382 38.736C168.072 39.0958 167.917 39.5655 167.917 40.1451V44.3125H165.593ZM178.583 44.4924C177.919 44.4924 177.307 44.335 176.747 44.0202C176.187 43.7004 175.738 43.2282 175.398 42.6036C175.058 41.979 174.888 41.2094 174.888 40.295C174.888 39.4206 175.06 38.6785 175.405 38.0689C175.755 37.4593 176.21 36.9971 176.769 36.6823C177.334 36.3625 177.939 36.2026 178.583 36.2026C179.058 36.2026 179.505 36.2975 179.925 36.4874C180.35 36.6723 180.719 36.9321 181.034 37.2669V32.5973H183.365V44.3125H181.034V43.3831C180.724 43.7229 180.357 43.9927 179.932 44.1926C179.513 44.3925 179.063 44.4924 178.583 44.4924ZM179.175 42.4761C179.495 42.4761 179.795 42.4012 180.075 42.2513C180.36 42.0964 180.589 41.879 180.764 41.5992C180.944 41.3194 181.034 40.9896 181.034 40.6098V39.9577C181.034 39.583 180.944 39.2607 180.764 38.9908C180.584 38.721 180.352 38.5136 180.067 38.3687C179.782 38.2188 179.485 38.1439 179.175 38.1439C178.666 38.1439 178.221 38.3162 177.841 38.661C177.466 39.0008 177.279 39.5455 177.279 40.295C177.279 41.0445 177.466 41.5967 177.841 41.9515C178.221 42.3013 178.666 42.4761 179.175 42.4761ZM188.45 44.4924C187.82 44.4924 187.223 44.3974 186.658 44.2076C186.099 44.0127 185.644 43.7254 185.294 43.3456C184.944 42.9608 184.77 42.4811 184.77 41.9065V41.7716H187.078V41.8765C187.078 42.1663 187.206 42.3787 187.46 42.5136C187.715 42.6485 188.065 42.716 188.51 42.716C188.85 42.716 189.167 42.661 189.462 42.5511C189.756 42.4412 189.904 42.2588 189.904 42.0039C189.904 41.7391 189.756 41.5517 189.462 41.4418C189.172 41.3319 188.705 41.2219 188.06 41.112C187.69 41.052 187.318 40.9671 186.943 40.8572C186.573 40.7472 186.231 40.6023 185.916 40.4224C185.602 40.2375 185.349 40.0052 185.159 39.7254C184.969 39.4405 184.875 39.0958 184.875 38.691C184.875 38.1514 185.037 37.6966 185.362 37.3269C185.691 36.9571 186.129 36.6773 186.673 36.4874C187.218 36.2975 187.818 36.2026 188.472 36.2026C189.092 36.2026 189.672 36.3075 190.211 36.5174C190.756 36.7222 191.196 37.0196 191.53 37.4093C191.865 37.7941 192.033 38.2588 192.033 38.8034V38.9084H189.746V38.8184C189.746 38.5186 189.609 38.3013 189.334 38.1663C189.064 38.0264 188.775 37.9565 188.465 37.9565C188.275 37.9565 188.077 37.979 187.873 38.0239C187.673 38.0639 187.503 38.1339 187.363 38.2338C187.223 38.3287 187.153 38.4637 187.153 38.6385C187.153 38.8934 187.318 39.0808 187.648 39.2007C187.983 39.3206 188.415 39.4231 188.944 39.508C189.279 39.563 189.632 39.6404 190.001 39.7404C190.376 39.8353 190.726 39.9727 191.051 40.1526C191.375 40.3275 191.64 40.5598 191.845 40.8497C192.05 41.1395 192.152 41.5018 192.152 41.9365C192.152 42.3912 192.048 42.781 191.838 43.1058C191.628 43.4306 191.343 43.6954 190.983 43.9003C190.628 44.1001 190.231 44.2475 189.791 44.3425C189.352 44.4424 188.904 44.4924 188.45 44.4924Z" fill="#F5CCF7"/>
<rect x="63.8894" y="87.5" width="173.462" height="47" rx="10.5" fill="white" stroke="#0D3D42" stroke-width="3"/>
<rect x="80.644" y="99" width="106.486" height="10" rx="3" fill="#F5CCF7"/>
<path d="M80.644 116C80.644 114.343 81.9872 113 83.644 113H127.337C128.994 113 130.337 114.343 130.337 116V121C130.337 122.657 128.994 124 127.337 124H83.644C81.9872 124 80.644 122.657 80.644 121V116Z" fill="#F5CCF7"/>
<rect x="63.8894" y="352.5" width="173.462" height="47" rx="10.5" fill="white" stroke="#0D3D42" stroke-width="3"/>
<rect x="63.8894" y="417.5" width="173.462" height="47" rx="10.5" fill="white" stroke="#0D3D42" stroke-width="3"/>
<rect x="63.8894" y="217.5" width="173.462" height="32" rx="10.5" fill="white" stroke="#0D3D42" stroke-width="3"/>
<rect x="25.3516" y="152.5" width="173.462" height="47" rx="10.5" fill="white" stroke="#0D3D42" stroke-width="3"/>
<rect x="25.3516" y="267.5" width="173.462" height="67" rx="10.5" fill="white" stroke="#0D3D42" stroke-width="3"/>
<ellipse cx="37.0355" cy="99" rx="13.184" ry="13" fill="#F5CCF7"/>
<ellipse cx="37.0355" cy="364" rx="13.184" ry="13" fill="#F5CCF7"/>
<ellipse cx="37.0355" cy="429" rx="13.184" ry="13" fill="#F5CCF7"/>
<ellipse cx="37.0355" cy="229" rx="13.184" ry="13" fill="#F5CCF7"/>
<ellipse cx="225.668" cy="164" rx="13.184" ry="13" fill="#F5CCF7"/>
<ellipse cx="225.668" cy="279" rx="13.184" ry="13" fill="#F5CCF7"/>
<rect x="75.5732" y="164" width="106.486" height="10" rx="3" fill="#F5CCF7"/>
<rect x="75.5732" y="281" width="106.486" height="10" rx="3" fill="#F5CCF7"/>
<path d="M54.2761 181C54.2761 179.343 55.6193 178 57.2761 178H179.059C180.716 178 182.059 179.343 182.059 181V186C182.059 187.657 180.716 189 179.059 189H57.2761C55.6193 189 54.2761 187.657 54.2761 186V181Z" fill="#F5CCF7"/>
<path d="M54.2761 298C54.2761 296.343 55.6193 295 57.2761 295H179.059C180.716 295 182.059 296.343 182.059 298V303C182.059 304.657 180.716 306 179.059 306H57.2761C55.6193 306 54.2761 304.657 54.2761 303V298Z" fill="#F5CCF7"/>
<path d="M80.644 231C80.644 229.343 81.9872 228 83.644 228H153.705C155.362 228 156.705 229.343 156.705 231V236C156.705 237.657 155.362 239 153.705 239H83.644C81.9872 239 80.644 237.657 80.644 236V231Z" fill="#F5CCF7"/>
<path d="M105.998 313C105.998 311.343 107.341 310 108.998 310H179.059C180.716 310 182.059 311.343 182.059 313V318C182.059 319.657 180.716 321 179.059 321H108.998C107.341 321 105.998 319.657 105.998 318V313Z" fill="#F5CCF7"/>
<rect x="80.644" y="364" width="106.486" height="10" rx="3" fill="#F5CCF7"/>
<rect x="80.644" y="429" width="76.0613" height="10" rx="3" fill="#F5CCF7"/>
<path d="M80.644 381C80.644 379.343 81.9872 378 83.644 378H127.337C128.994 378 130.337 379.343 130.337 381V386C130.337 387.657 128.994 389 127.337 389H83.644C81.9872 389 80.644 387.657 80.644 386V381Z" fill="#F5CCF7"/>
<rect x="1.24922" y="1.24922" width="257.339" height="438.892" rx="10.7508" stroke="#0D3D42" stroke-width="2.49844"/>
</g>
<defs>
<clipPath id="clip0">
<rect width="260" height="441.67" rx="12" fill="white"/>
</clipPath>
</defs>
</svg>
