<svg width="260" height="442" viewBox="0 0 260 442" fill="none" xmlns="http://www.w3.org/2000/svg">
<g clip-path="url(#clip0)">
<rect width="259.837" height="441.391" rx="9.99375" fill="white"/>
<rect x="21.1921" y="356.177" width="216.863" height="47.8016" rx="10.5" fill="white" stroke="#0D3D42" stroke-width="3"/>
<rect x="21.1921" y="413.641" width="216.863" height="47.8016" rx="10.5" fill="white" stroke="#0D3D42" stroke-width="3"/>
<rect x="61.3328" y="367.169" width="94.1078" height="9.99375" rx="2.49844" fill="#D2D6DB"/>
<rect x="61.3328" y="424.633" width="94.1078" height="9.99375" rx="2.49844" fill="#D2D6DB"/>
<rect x="61.3328" y="382.16" width="67.4578" height="9.99375" rx="2.49844" fill="#D2D6DB"/>
<rect x="61.3328" y="439.624" width="67.4578" height="9.99375" rx="2.49844" fill="#D2D6DB"/>
<rect x="132.122" y="382.16" width="62.4609" height="9.99375" rx="2.49844" fill="#D2D6DB"/>
<rect x="132.122" y="439.624" width="62.4609" height="9.99375" rx="2.49844" fill="#D2D6DB"/>
<rect x="21.1921" y="298.712" width="216.863" height="47.8016" rx="10.5" fill="white" stroke="#0D3D42" stroke-width="3"/>
<rect x="61.3335" y="311.37" width="119.092" height="9.99375" rx="2.49844" fill="#D2D6DB"/>
<rect x="61.3335" y="326.361" width="55.7984" height="9.99375" rx="2.49844" fill="#D2D6DB"/>
<rect x="119.63" y="326.361" width="30.8141" height="9.99375" rx="2.49844" fill="#D2D6DB"/>
<rect x="152.943" y="326.361" width="55.7984" height="9.99375" rx="2.49844" fill="#D2D6DB"/>
<circle cx="42.1789" cy="322.197" r="13.325" fill="#D2D6DB"/>
<circle cx="42.1782" cy="380.494" r="13.325" fill="#D2D6DB"/>
<circle cx="42.1782" cy="437.958" r="13.325" fill="#D2D6DB"/>
<rect x="22.0266" y="212.101" width="216.03" height="76.95" rx="10.5" stroke="#0D3D42" stroke-width="3"/>
<path d="M38.0156 236.418C38.0156 230.898 42.49 226.424 48.0094 226.424H77.9906C83.51 226.424 87.9844 230.898 87.9844 236.418V266.399C87.9844 271.918 83.51 276.393 77.9906 276.393H48.0094C42.49 276.393 38.0156 271.918 38.0156 266.399V236.418Z" fill="#D2D6DB"/>
<path d="M147.947 265.15C147.947 263.08 149.625 261.402 151.695 261.402V261.402C153.764 261.402 155.442 263.08 155.442 265.15V271.812C155.442 273.882 153.764 275.56 151.695 275.56V275.56C149.625 275.56 147.947 273.882 147.947 271.812V265.15Z" fill="#D2D6DB"/>
<path d="M152.944 265.15V271.812H157.941V265.15H152.944ZM150.445 271.812V265.15H145.448V271.812H150.445ZM151.695 273.061C151.005 273.061 150.445 272.502 150.445 271.812H145.448C145.448 275.262 148.245 278.058 151.695 278.058V273.061ZM152.944 271.812C152.944 272.502 152.384 273.061 151.695 273.061V278.058C155.144 278.058 157.941 275.262 157.941 271.812H152.944ZM151.695 263.9C152.384 263.9 152.944 264.46 152.944 265.15H157.941C157.941 261.7 155.144 258.903 151.695 258.903V263.9ZM151.695 258.903C148.245 258.903 145.448 261.7 145.448 265.15H150.445C150.445 264.46 151.005 263.9 151.695 263.9V258.903Z" fill="#D2D6DB"/>
<path d="M157.108 265.15C157.108 263.08 158.786 261.402 160.855 261.402V261.402C162.925 261.402 164.603 263.08 164.603 265.15V271.812C164.603 273.882 162.925 275.56 160.855 275.56V275.56C158.786 275.56 157.108 273.882 157.108 271.812V265.15Z" fill="#D2D6DB"/>
<path d="M162.105 265.15V271.812H167.102V265.15H162.105ZM159.606 271.812V265.15H154.609V271.812H159.606ZM160.855 273.062C160.166 273.062 159.606 272.502 159.606 271.812H154.609C154.609 275.262 157.406 278.059 160.855 278.059V273.062ZM162.105 271.812C162.105 272.502 161.545 273.062 160.855 273.062V278.059C164.305 278.059 167.102 275.262 167.102 271.812H162.105ZM160.855 263.901C161.545 263.901 162.105 264.46 162.105 265.15H167.102C167.102 261.7 164.305 258.904 160.855 258.904V263.901ZM160.855 258.904C157.406 258.904 154.609 261.7 154.609 265.15H159.606C159.606 264.46 160.166 263.901 160.855 263.901V258.904Z" fill="#D2D6DB"/>
<path d="M200.683 266.226C202.58 267.131 202.58 269.831 200.683 270.736L194.619 273.628C192.961 274.419 191.045 273.21 191.045 271.373L191.045 265.589C191.045 263.752 192.961 262.543 194.619 263.334L200.683 266.226Z" fill="#D2D6DB"/>
<path d="M111.034 270.736C109.137 269.832 109.137 267.131 111.034 266.226L117.098 263.334C118.756 262.543 120.672 263.752 120.672 265.589L120.672 271.373C120.672 273.21 118.756 274.419 117.098 273.629L111.034 270.736Z" fill="#D2D6DB"/>
<path d="M209.011 266.226C210.908 267.131 210.908 269.831 209.011 270.736L202.947 273.628C201.289 274.419 199.373 273.21 199.373 271.373L199.373 265.589C199.373 263.752 201.289 262.543 202.947 263.334L209.011 266.226Z" fill="#D2D6DB"/>
<path d="M102.706 270.736C100.809 269.832 100.809 267.131 102.706 266.226L108.77 263.334C110.428 262.543 112.344 263.752 112.344 265.589L112.344 271.373C112.344 273.21 110.428 274.419 108.77 273.629L102.706 270.736Z" fill="#D2D6DB"/>
<rect x="100.477" y="228.922" width="97.4391" height="9.99375" rx="2.49844" fill="#D2D6DB"/>
<rect x="100.477" y="243.913" width="108.266" height="9.99375" rx="2.49844" fill="#D2D6DB"/>
<rect x="-204.5" y="105.5" width="216.863" height="96.9375" rx="10.5" stroke="#0D3D42" stroke-width="3"/>
<rect x="22.0266" y="105.5" width="216.863" height="96.9375" rx="10.5" stroke="#0D3D42" stroke-width="3"/>
<path d="M38.0156 130.65C38.0156 125.131 42.49 120.656 48.0094 120.656H111.303C116.823 120.656 121.297 125.131 121.297 130.65V177.287C121.297 182.807 116.823 187.281 111.303 187.281H48.0094C42.49 187.281 38.0156 182.807 38.0156 177.287V130.65Z" fill="#D2D6DB"/>
<rect x="135.455" y="126.486" width="65.7922" height="9.99375" rx="2.49844" fill="#D2D6DB"/>
<rect x="135.455" y="156.467" width="45.8047" height="9.99375" rx="2.49844" fill="#D2D6DB"/>
<rect x="135.455" y="141.477" width="73.2875" height="9.99375" rx="2.49844" fill="#D2D6DB"/>
<rect x="135.455" y="171.458" width="50.8016" height="9.99375" rx="2.49844" fill="#D2D6DB"/>
<rect x="248.554" y="105.5" width="216.863" height="96.9375" rx="10.5" stroke="#0D3D42" stroke-width="3"/>
<rect x="24" y="22" width="217" height="47" rx="2" fill="#0D3D42"/>
<rect x="21" y="19" width="215" height="45" rx="1" fill="#21BA70" stroke="#0D3D42" stroke-width="2"/>
<path d="M93.791 47.4924C92.9166 47.4924 92.1196 47.275 91.4 46.8403C90.6855 46.4006 90.1158 45.761 89.6911 44.9215C89.2714 44.077 89.0615 43.0402 89.0615 41.8109C89.0615 40.5867 89.2839 39.5499 89.7286 38.7004C90.1733 37.8509 90.7704 37.2038 91.52 36.7591C92.2745 36.3144 93.1165 36.092 94.0459 36.092C94.8204 36.092 95.475 36.2169 96.0097 36.4668C96.5493 36.7166 96.9865 37.0364 97.3213 37.4262C97.6611 37.8159 97.9085 38.2282 98.0634 38.6629C98.2183 39.0926 98.2957 39.4899 98.2957 39.8547C98.2957 39.8697 98.2957 39.8846 98.2957 39.8996C98.2957 39.9146 98.2957 39.9296 98.2957 39.9446H96.0321C96.0321 39.9296 96.0321 39.9146 96.0321 39.8996C96.0321 39.8846 96.0321 39.8697 96.0321 39.8547C96.0321 39.6248 95.9897 39.3974 95.9047 39.1726C95.8198 38.9427 95.6924 38.7379 95.5225 38.558C95.3576 38.3781 95.1502 38.2332 94.9003 38.1232C94.6555 38.0133 94.3707 37.9583 94.0459 37.9583C93.6062 37.9583 93.1864 38.0833 92.7867 38.3331C92.3869 38.583 92.0596 38.9902 91.8048 39.5549C91.5499 40.1145 91.4225 40.8665 91.4225 41.8109C91.4225 42.5305 91.4925 43.1351 91.6324 43.6248C91.7773 44.1145 91.9697 44.5068 92.2095 44.8016C92.4494 45.0914 92.7217 45.3013 93.0265 45.4312C93.3363 45.5611 93.6561 45.6261 93.9859 45.6261C94.4406 45.6261 94.8204 45.5511 95.1252 45.4012C95.435 45.2463 95.6774 45.0564 95.8523 44.8316C96.0271 44.6067 96.1396 44.3843 96.1895 44.1645V43.4449H94.0009V41.766H98.2508V47.3125H97.029L96.8191 46.0908C96.7792 46.1857 96.6942 46.3106 96.5643 46.4655C96.4344 46.6204 96.2495 46.7778 96.0097 46.9377C95.7748 47.0926 95.4725 47.2226 95.1027 47.3275C94.7379 47.4374 94.3007 47.4924 93.791 47.4924ZM102.812 47.4774C102.232 47.4774 101.715 47.385 101.26 47.2001C100.811 47.0152 100.458 46.7479 100.204 46.3981C99.9488 46.0483 99.8214 45.6236 99.8214 45.1239C99.8214 44.5592 99.9763 44.0995 100.286 43.7447C100.596 43.39 101.006 43.1201 101.515 42.9352C102.03 42.7454 102.587 42.6204 103.187 42.5605C104.061 42.4755 104.663 42.3981 104.993 42.3281C105.328 42.2582 105.495 42.1357 105.495 41.9608C105.495 41.9558 105.495 41.9509 105.495 41.9459C105.495 41.651 105.353 41.4187 105.068 41.2488C104.788 41.0789 104.396 40.994 103.891 40.994C103.357 40.994 102.947 41.0914 102.662 41.2863C102.382 41.4761 102.242 41.7685 102.242 42.1632H99.9563C99.9563 41.5236 100.129 40.984 100.473 40.5442C100.823 40.1045 101.295 39.7722 101.89 39.5474C102.485 39.3175 103.157 39.2026 103.906 39.2026C104.606 39.2026 105.253 39.31 105.848 39.5249C106.442 39.7347 106.919 40.052 107.279 40.4768C107.644 40.9015 107.826 41.4412 107.826 42.0958C107.826 42.2007 107.826 42.3056 107.826 42.4106C107.826 42.5105 107.826 42.6129 107.826 42.7179V45.5361C107.826 45.741 107.831 45.9384 107.841 46.1282C107.856 46.3131 107.886 46.483 107.931 46.6379C107.981 46.8128 108.044 46.9577 108.119 47.0726C108.194 47.1876 108.256 47.2675 108.306 47.3125H106.02C105.985 47.2775 105.93 47.2051 105.855 47.0951C105.785 46.9852 105.725 46.8578 105.675 46.7129C105.615 46.538 105.57 46.3631 105.54 46.1882C105.515 46.0083 105.503 45.7984 105.503 45.5586L105.983 45.8884C105.843 46.2182 105.615 46.503 105.3 46.7429C104.991 46.9777 104.621 47.1601 104.191 47.29C103.766 47.4149 103.307 47.4774 102.812 47.4774ZM103.434 45.7385C103.799 45.7385 104.139 45.6735 104.453 45.5436C104.773 45.4087 105.033 45.1988 105.233 44.914C105.433 44.6292 105.533 44.2569 105.533 43.7972V42.9952L106.11 43.5573C105.78 43.6773 105.398 43.7772 104.963 43.8572C104.533 43.9321 104.104 43.9921 103.674 44.037C103.164 44.087 102.782 44.1745 102.527 44.2994C102.277 44.4193 102.152 44.6242 102.152 44.914C102.152 45.1888 102.26 45.3962 102.475 45.5361C102.69 45.671 103.009 45.7385 103.434 45.7385ZM109.527 47.3125V39.3525H111.858V42.0958L111.378 41.7959C111.433 41.4212 111.533 41.0764 111.678 40.7616C111.823 40.4468 112.01 40.1745 112.24 39.9446C112.47 39.7098 112.742 39.5274 113.057 39.3974C113.377 39.2675 113.742 39.2026 114.151 39.2026C114.471 39.2026 114.721 39.2276 114.901 39.2775C115.086 39.3225 115.201 39.3575 115.246 39.3825L114.863 41.4662C114.818 41.4412 114.718 41.4012 114.564 41.3462C114.409 41.2913 114.209 41.2638 113.964 41.2638C113.564 41.2638 113.229 41.3312 112.96 41.4662C112.69 41.6011 112.472 41.781 112.308 42.0058C112.148 42.2257 112.033 42.4705 111.963 42.7404C111.893 43.0102 111.858 43.2825 111.858 43.5573V47.3125H109.527ZM119.603 47.4924C118.939 47.4924 118.327 47.335 117.767 47.0202C117.207 46.7004 116.758 46.2282 116.418 45.6036C116.078 44.979 115.908 44.2094 115.908 43.295C115.908 42.4206 116.081 41.6785 116.425 41.0689C116.775 40.4593 117.23 39.9971 117.79 39.6823C118.354 39.3625 118.959 39.2026 119.603 39.2026C120.233 39.2026 120.808 39.3625 121.327 39.6823C121.852 40.0021 122.272 40.4393 122.587 40.994C122.901 41.5436 123.059 42.1782 123.059 42.8978C123.059 42.9227 123.059 42.9477 123.059 42.9727C123.059 42.9927 123.059 43.0152 123.059 43.0402L122.054 43.0552C122.054 43.0402 122.054 43.0252 122.054 43.0102C122.054 42.9902 122.054 42.9727 122.054 42.9577C122.054 42.583 121.964 42.2607 121.785 41.9908C121.605 41.721 121.372 41.5136 121.087 41.3687C120.803 41.2188 120.505 41.1439 120.196 41.1439C119.681 41.1439 119.236 41.3162 118.861 41.661C118.487 42.0008 118.299 42.5455 118.299 43.295C118.299 44.0445 118.487 44.5967 118.861 44.9515C119.241 45.3013 119.686 45.4761 120.196 45.4761C120.515 45.4761 120.818 45.4012 121.102 45.2513C121.387 45.0964 121.617 44.879 121.792 44.5992C121.967 44.3194 122.054 43.9896 122.054 43.6098L123.059 43.6623C123.059 44.3768 122.904 45.0239 122.594 45.6036C122.289 46.1782 121.874 46.6379 121.35 46.9827C120.83 47.3225 120.248 47.4924 119.603 47.4924ZM122.054 47.3125V35.5973H124.385V47.3125H122.054ZM127.049 44.0296V42.493H132.326L132.101 42.8828C132.101 42.8428 132.101 42.8053 132.101 42.7703C132.101 42.7304 132.101 42.6929 132.101 42.6579C132.101 42.3731 132.033 42.1008 131.898 41.8409C131.763 41.5761 131.554 41.3612 131.269 41.1963C130.989 41.0264 130.629 40.9415 130.189 40.9415C129.75 40.9415 129.37 41.0364 129.05 41.2263C128.735 41.4112 128.493 41.6785 128.323 42.0283C128.158 42.3781 128.076 42.8003 128.076 43.295C128.076 43.8047 128.156 44.2419 128.316 44.6067C128.481 44.9665 128.723 45.2438 129.043 45.4387C129.367 45.6335 129.77 45.731 130.249 45.731C130.559 45.731 130.827 45.7035 131.051 45.6485C131.276 45.5886 131.459 45.5136 131.599 45.4237C131.743 45.3337 131.853 45.2338 131.928 45.1239C132.003 45.0139 132.048 44.9065 132.063 44.8016H134.357C134.327 45.1364 134.212 45.4662 134.012 45.791C133.812 46.1108 133.535 46.4006 133.18 46.6604C132.825 46.9152 132.393 47.1176 131.883 47.2675C131.379 47.4174 130.802 47.4924 130.152 47.4924C129.273 47.4924 128.506 47.3175 127.851 46.9677C127.196 46.6129 126.689 46.1257 126.329 45.5061C125.97 44.8815 125.79 44.162 125.79 43.3475C125.79 42.523 125.972 41.8009 126.337 41.1813C126.707 40.5567 127.219 40.072 127.873 39.7272C128.533 39.3775 129.295 39.2026 130.159 39.2026C131.044 39.2026 131.808 39.38 132.453 39.7347C133.098 40.0845 133.595 40.5767 133.945 41.2113C134.294 41.8409 134.469 42.5755 134.469 43.4149C134.469 43.5399 134.467 43.6598 134.462 43.7747C134.457 43.8896 134.449 43.9746 134.439 44.0296H127.049ZM141.528 47.3125V43.9321C141.528 43.7422 141.528 43.5698 141.528 43.4149C141.528 43.26 141.528 43.1201 141.528 42.9952C141.528 42.6654 141.485 42.3656 141.4 42.0958C141.316 41.8209 141.163 41.6011 140.943 41.4362C140.723 41.2713 140.406 41.1888 139.991 41.1888C139.632 41.1888 139.319 41.2713 139.054 41.4362C138.795 41.6011 138.595 41.8309 138.455 42.1257C138.315 42.4206 138.245 42.7603 138.245 43.1451L137.6 42.6804C137.6 41.9908 137.75 41.3862 138.05 40.8665C138.35 40.3469 138.755 39.9396 139.264 39.6448C139.779 39.35 140.349 39.2026 140.973 39.2026C141.628 39.2026 142.165 39.335 142.585 39.5998C143.009 39.8597 143.324 40.2244 143.529 40.6941C143.739 41.1588 143.844 41.7035 143.844 42.3281C143.844 42.583 143.844 42.8678 143.844 43.1826C143.844 43.4974 143.844 43.8197 143.844 44.1495V47.3125H141.528ZM135.921 47.3125V39.3525H138.245V47.3125H135.921ZM145.493 47.3125V39.3525H147.794V47.3125H145.493ZM146.64 38.0558C146.28 38.0558 145.966 37.9608 145.696 37.771C145.431 37.5811 145.298 37.3138 145.298 36.969C145.298 36.6192 145.431 36.3494 145.696 36.1595C145.966 35.9696 146.28 35.8747 146.64 35.8747C147.005 35.8747 147.32 35.9696 147.585 36.1595C147.854 36.3494 147.989 36.6192 147.989 36.969C147.989 37.3187 147.854 37.5886 147.585 37.7785C147.32 37.9633 147.005 38.0558 146.64 38.0558ZM155.113 47.3125V43.9321C155.113 43.7422 155.113 43.5698 155.113 43.4149C155.113 43.26 155.113 43.1201 155.113 42.9952C155.113 42.6654 155.071 42.3656 154.986 42.0958C154.901 41.8209 154.748 41.6011 154.528 41.4362C154.309 41.2713 153.991 41.1888 153.577 41.1888C153.217 41.1888 152.905 41.2713 152.64 41.4362C152.38 41.6011 152.18 41.8309 152.04 42.1257C151.9 42.4206 151.83 42.7603 151.83 43.1451L151.186 42.6804C151.186 41.9908 151.335 41.3862 151.635 40.8665C151.935 40.3469 152.34 39.9396 152.85 39.6448C153.364 39.35 153.934 39.2026 154.558 39.2026C155.213 39.2026 155.75 39.335 156.17 39.5998C156.595 39.8597 156.91 40.2244 157.114 40.6941C157.324 41.1588 157.429 41.7035 157.429 42.3281C157.429 42.583 157.429 42.8678 157.429 43.1826C157.429 43.4974 157.429 43.8197 157.429 44.1495V47.3125H155.113ZM149.507 47.3125V39.3525H151.83V47.3125H149.507ZM164.663 46.3681C165.152 46.4181 165.58 46.513 165.944 46.6529C166.314 46.7878 166.601 46.9902 166.806 47.26C167.011 47.5249 167.114 47.8796 167.114 48.3244C167.114 48.839 166.944 49.2763 166.604 49.636C166.269 50.0008 165.777 50.2781 165.127 50.468C164.478 50.6579 163.691 50.7528 162.766 50.7528C161.402 50.7528 160.345 50.5555 159.596 50.1607C158.851 49.771 158.479 49.2488 158.479 48.5942C158.479 48.4093 158.499 48.2419 158.539 48.092C158.584 47.9471 158.639 47.8222 158.704 47.7172L160.818 48.0246C160.793 48.0595 160.765 48.112 160.735 48.182C160.71 48.2569 160.698 48.3494 160.698 48.4593C160.698 48.7241 160.895 48.9215 161.29 49.0514C161.689 49.1813 162.204 49.2463 162.834 49.2463C163.278 49.2463 163.658 49.2138 163.973 49.1489C164.293 49.0889 164.535 48.9989 164.7 48.879C164.87 48.7591 164.955 48.6217 164.955 48.4668C164.955 48.2419 164.845 48.0945 164.625 48.0246C164.41 47.9546 164.16 47.9046 163.876 47.8746L160.863 47.5673C160.308 47.5124 159.848 47.3525 159.483 47.0876C159.119 46.8228 158.936 46.4655 158.936 46.0158C158.936 45.736 159.014 45.4811 159.169 45.2513C159.323 45.0164 159.501 44.8241 159.701 44.6741C159.901 44.5192 160.068 44.4218 160.203 44.3818L161.387 44.9815C161.292 44.9964 161.18 45.0564 161.05 45.1613C160.925 45.2663 160.863 45.3887 160.863 45.5286C160.863 45.6685 160.932 45.7885 161.072 45.8884C161.217 45.9883 161.48 46.0558 161.859 46.0908L164.663 46.3681ZM165.45 39.3525H167.496L166.664 42.4106C166.509 42.9902 166.279 43.5074 165.974 43.9621C165.669 44.4118 165.262 44.7666 164.753 45.0264C164.248 45.2863 163.611 45.4162 162.841 45.4162C162.032 45.4162 161.33 45.2913 160.735 45.0414C160.145 44.7916 159.691 44.4393 159.371 43.9846C159.051 43.5249 158.891 42.9827 158.891 42.3581C158.891 41.7335 159.054 41.1838 159.378 40.7091C159.708 40.2344 160.155 39.8647 160.72 39.5998C161.29 39.335 161.934 39.2026 162.654 39.2026C163.199 39.2026 163.696 39.2925 164.145 39.4724C164.6 39.6473 164.965 39.8796 165.24 40.1695C165.52 40.4593 165.664 40.7791 165.674 41.1289L165.247 41.2413L165.45 39.3525ZM162.826 43.7147C163.156 43.7147 163.446 43.6623 163.696 43.5573C163.946 43.4474 164.14 43.29 164.28 43.0851C164.42 42.8753 164.49 42.6229 164.49 42.3281C164.49 42.0383 164.42 41.791 164.28 41.5861C164.14 41.3812 163.946 41.2238 163.696 41.1139C163.446 41.0039 163.156 40.949 162.826 40.949C162.511 40.949 162.227 41.0064 161.972 41.1214C161.722 41.2313 161.525 41.3912 161.38 41.6011C161.235 41.8059 161.162 42.0558 161.162 42.3506C161.162 42.6404 161.232 42.8878 161.372 43.0926C161.512 43.2925 161.707 43.4474 161.957 43.5573C162.207 43.6623 162.496 43.7147 162.826 43.7147Z" fill="white"/>
<rect x="1.49841" y="1.5" width="256.837" height="438.391" rx="10.5" stroke="#0D3D42" stroke-width="3"/>
</g>
<defs>
<clipPath id="clip0">
<rect width="259.837" height="441.391" rx="9.99375" fill="white"/>
</clipPath>
</defs>
</svg>
