<svg width="260" height="442" viewBox="0 0 260 442" fill="none" xmlns="http://www.w3.org/2000/svg">
<g clip-path="url(#clip0)">
<rect width="260" height="441.67" rx="12" fill="white"/>
<rect x="25" y="24" width="217" height="47" rx="2" fill="#F1645A"/>
<rect x="22" y="21" width="215" height="45" rx="1" fill="#FFDA57" stroke="#F1645A" stroke-width="2"/>
<path d="M96.3129 36.2569H100.248V47.3125H98.0443V37.8609L95.9307 47.3125H92.8876L90.7364 37.8459V47.3125H88.5253V36.2569H92.4603L94.3791 45.7385L96.3129 36.2569ZM104.865 47.4774C103.991 47.4774 103.273 47.2725 102.714 46.8628C102.154 46.453 101.874 45.8734 101.874 45.1239C101.874 44.5592 102.029 44.0995 102.339 43.7447C102.649 43.39 103.059 43.1201 103.568 42.9352C104.083 42.7454 104.64 42.6204 105.24 42.5605C106.109 42.4805 106.711 42.4056 107.046 42.3356C107.381 42.2607 107.548 42.1357 107.548 41.9608V41.9459C107.548 41.651 107.406 41.4187 107.121 41.2488C106.841 41.0789 106.449 40.994 105.944 40.994C104.845 40.994 104.295 41.3837 104.295 42.1632H102.009C102.009 41.5286 102.182 40.9915 102.526 40.5517C102.876 40.107 103.348 39.7722 103.943 39.5474C104.538 39.3175 105.21 39.2026 105.959 39.2026C106.659 39.2026 107.306 39.31 107.901 39.5249C108.495 39.7347 108.972 40.0545 109.332 40.4843C109.697 40.909 109.879 41.4462 109.879 42.0958V45.5361C109.879 45.741 109.884 45.9384 109.894 46.1282C109.909 46.3181 109.939 46.488 109.984 46.6379C110.034 46.8128 110.097 46.9577 110.172 47.0726C110.247 47.1876 110.309 47.2675 110.359 47.3125H108.073C108.038 47.2725 107.983 47.2001 107.908 47.0951C107.838 46.9852 107.778 46.8578 107.728 46.7129C107.698 46.6279 107.673 46.5455 107.653 46.4655C107.353 46.7853 106.959 47.0352 106.469 47.2151C105.979 47.39 105.445 47.4774 104.865 47.4774ZM105.487 45.7385C105.847 45.7385 106.187 45.6735 106.506 45.5436C106.826 45.4087 107.086 45.1988 107.286 44.914C107.486 44.6292 107.586 44.2569 107.586 43.7972V43.7297C107.301 43.8047 106.999 43.8672 106.679 43.9171C106.359 43.9621 106.042 44.0021 105.727 44.037C105.217 44.087 104.835 44.1745 104.58 44.2994C104.33 44.4193 104.205 44.6242 104.205 44.914C104.205 45.4637 104.633 45.7385 105.487 45.7385ZM111.58 47.3125V39.3525H113.911V40.4318C114.141 40.057 114.445 39.7597 114.825 39.5399C115.21 39.315 115.67 39.2026 116.204 39.2026C116.524 39.2026 116.774 39.2276 116.954 39.2775C117.139 39.3225 117.254 39.3575 117.299 39.3825L116.916 41.4662C116.871 41.4412 116.771 41.4012 116.617 41.3462C116.462 41.2913 116.262 41.2638 116.017 41.2638C115.482 41.2638 115.06 41.3787 114.75 41.6086C114.445 41.8384 114.228 42.1307 114.098 42.4855C113.973 42.8353 113.911 43.1926 113.911 43.5573V47.3125H111.58ZM122.387 47.4774C122.083 47.4774 121.768 47.4499 121.443 47.3949C121.123 47.345 120.826 47.2425 120.551 47.0876C120.276 46.9277 120.051 46.6954 119.876 46.3906C119.707 46.0858 119.622 45.6835 119.622 45.1838V41.1514H117.785V39.3525H118.302C118.707 39.3525 119.002 39.325 119.187 39.27C119.377 39.2151 119.497 39.0752 119.547 38.8503C119.597 38.6204 119.622 38.2482 119.622 37.7335V36.7291H121.953V39.3525H124.269V41.1514H121.953V44.5242C121.953 44.869 121.993 45.1489 122.073 45.3637C122.158 45.5786 122.365 45.686 122.695 45.686C122.86 45.686 123.014 45.671 123.159 45.641C123.309 45.6111 123.422 45.5811 123.497 45.5511V47.2975C123.392 47.3425 123.244 47.3825 123.054 47.4174C122.865 47.4574 122.642 47.4774 122.387 47.4774ZM126.734 38.0558C126.374 38.0558 126.06 37.9608 125.79 37.771C125.525 37.5811 125.393 37.3138 125.393 36.969C125.393 36.6192 125.525 36.3494 125.79 36.1595C126.06 35.9696 126.374 35.8747 126.734 35.8747C127.094 35.8747 127.409 35.9696 127.679 36.1595C127.948 36.3494 128.083 36.6192 128.083 36.969C128.083 37.3187 127.948 37.5886 127.679 37.7785C127.409 37.9633 127.094 38.0558 126.734 38.0558ZM125.587 47.3125V39.3525H127.888V47.3125H125.587ZM132.299 47.4774C131.425 47.4774 130.707 47.2725 130.148 46.8628C129.588 46.453 129.308 45.8734 129.308 45.1239C129.308 44.5592 129.463 44.0995 129.773 43.7447C130.083 43.39 130.493 43.1201 131.002 42.9352C131.517 42.7454 132.074 42.6204 132.674 42.5605C133.543 42.4805 134.145 42.4056 134.48 42.3356C134.815 42.2607 134.982 42.1357 134.982 41.9608V41.9459C134.982 41.651 134.84 41.4187 134.555 41.2488C134.275 41.0789 133.883 40.994 133.378 40.994C132.279 40.994 131.729 41.3837 131.729 42.1632H129.443C129.443 41.5286 129.616 40.9915 129.96 40.5517C130.31 40.107 130.782 39.7722 131.377 39.5474C131.972 39.3175 132.644 39.2026 133.393 39.2026C134.093 39.2026 134.74 39.31 135.335 39.5249C135.929 39.7347 136.406 40.0545 136.766 40.4843C137.131 40.909 137.313 41.4462 137.313 42.0958V45.5361C137.313 45.741 137.318 45.9384 137.328 46.1282C137.343 46.3181 137.373 46.488 137.418 46.6379C137.468 46.8128 137.531 46.9577 137.606 47.0726C137.681 47.1876 137.743 47.2675 137.793 47.3125H135.507C135.472 47.2725 135.417 47.2001 135.342 47.0951C135.272 46.9852 135.212 46.8578 135.162 46.7129C135.132 46.6279 135.107 46.5455 135.087 46.4655C134.787 46.7853 134.393 47.0352 133.903 47.2151C133.413 47.39 132.879 47.4774 132.299 47.4774ZM132.921 45.7385C133.281 45.7385 133.621 45.6735 133.94 45.5436C134.26 45.4087 134.52 45.1988 134.72 44.914C134.92 44.6292 135.02 44.2569 135.02 43.7972V43.7297C134.735 43.8047 134.433 43.8672 134.113 43.9171C133.793 43.9621 133.476 44.0021 133.161 44.037C132.651 44.087 132.269 44.1745 132.014 44.2994C131.764 44.4193 131.639 44.6242 131.639 44.914C131.639 45.4637 132.067 45.7385 132.921 45.7385ZM141.42 35.5973V47.3125H139.126V35.5973H141.42ZM146.527 47.3125L149.285 36.2419H152.965L155.708 47.3125H153.325L152.74 44.7491H149.502L148.91 47.3125H146.527ZM149.922 42.9352H152.328L151.129 37.696L149.922 42.9352ZM157.035 47.3125V39.3525H159.366V40.4318C159.596 40.057 159.9 39.7597 160.28 39.5399C160.665 39.315 161.125 39.2026 161.659 39.2026C161.979 39.2026 162.229 39.2276 162.409 39.2775C162.594 39.3225 162.709 39.3575 162.754 39.3825L162.371 41.4662C162.326 41.4412 162.226 41.4012 162.072 41.3462C161.917 41.2913 161.717 41.2638 161.472 41.2638C160.937 41.2638 160.515 41.3787 160.205 41.6086C159.9 41.8384 159.683 42.1307 159.553 42.4855C159.428 42.8353 159.366 43.1926 159.366 43.5573V47.3125H157.035ZM167.842 47.4774C167.538 47.4774 167.223 47.4499 166.898 47.3949C166.578 47.345 166.281 47.2425 166.006 47.0876C165.731 46.9277 165.506 46.6954 165.331 46.3906C165.162 46.0858 165.077 45.6835 165.077 45.1838V41.1514H163.24V39.3525H163.757C164.162 39.3525 164.457 39.325 164.642 39.27C164.832 39.2151 164.952 39.0752 165.002 38.8503C165.052 38.6204 165.077 38.2482 165.077 37.7335V36.7291H167.408V39.3525H169.724V41.1514H167.408V44.5242C167.408 44.869 167.448 45.1489 167.528 45.3637C167.612 45.5786 167.82 45.686 168.15 45.686C168.315 45.686 168.469 45.671 168.614 45.641C168.764 45.6111 168.877 45.5811 168.952 45.5511V47.2975C168.847 47.3425 168.699 47.3825 168.509 47.4174C168.32 47.4574 168.097 47.4774 167.842 47.4774ZM174.255 47.4924C173.625 47.4924 173.028 47.3974 172.464 47.2076C171.904 47.0127 171.449 46.7254 171.099 46.3456C170.75 45.9608 170.575 45.4811 170.575 44.9065V44.7716H172.883V44.8765C172.883 45.1663 173.011 45.3787 173.266 45.5136C173.52 45.6485 173.87 45.716 174.315 45.716C174.655 45.716 174.972 45.661 175.267 45.5511C175.562 45.4412 175.709 45.2588 175.709 45.0039C175.709 44.7391 175.562 44.5517 175.267 44.4418C174.977 44.3319 174.51 44.2219 173.865 44.112C173.495 44.052 173.123 43.9671 172.748 43.8572C172.379 43.7472 172.036 43.6023 171.722 43.4224C171.407 43.2375 171.154 43.0052 170.964 42.7254C170.775 42.4405 170.68 42.0958 170.68 41.691C170.68 41.1514 170.842 40.6966 171.167 40.3269C171.497 39.9571 171.934 39.6773 172.479 39.4874C173.023 39.2975 173.623 39.2026 174.277 39.2026C174.897 39.2026 175.477 39.3075 176.016 39.5174C176.561 39.7222 177.001 40.0196 177.336 40.4093C177.67 40.7941 177.838 41.2588 177.838 41.8034V41.9084H175.552V41.8184C175.552 41.5186 175.414 41.3013 175.139 41.1663C174.87 41.0264 174.58 40.9565 174.27 40.9565C174.08 40.9565 173.883 40.979 173.678 41.0239C173.478 41.0639 173.308 41.1339 173.168 41.2338C173.028 41.3287 172.958 41.4637 172.958 41.6385C172.958 41.8934 173.123 42.0808 173.453 42.2007C173.788 42.3206 174.22 42.4231 174.75 42.508C175.084 42.563 175.437 42.6404 175.806 42.7404C176.181 42.8353 176.531 42.9727 176.856 43.1526C177.181 43.3275 177.445 43.5598 177.65 43.8497C177.855 44.1395 177.958 44.5018 177.958 44.9365C177.958 45.3912 177.853 45.781 177.643 46.1058C177.433 46.4306 177.148 46.6954 176.788 46.9003C176.434 47.1001 176.036 47.2475 175.597 47.3425C175.157 47.4424 174.71 47.4924 174.255 47.4924Z" fill="#E65259"/>
<rect x="24.5" y="88.5" width="212" height="137" rx="10.5" fill="white" stroke="#E65259" stroke-width="3"/>
<path d="M24.5 99C24.5 93.201 29.201 88.5 35 88.5H226C231.799 88.5 236.5 93.201 236.5 99V181.595H24.5V99Z" fill="white" stroke="#E65259" stroke-width="3"/>
<rect x="68" y="191" width="105" height="10" rx="3" fill="#FFDA57"/>
<rect x="68" y="205" width="49" height="11" rx="3" fill="#FFDA57"/>
<rect x="120" y="206" width="26" height="10" rx="3" fill="#FFDA57"/>
<rect x="149" y="206" width="49" height="10" rx="3" fill="#FFDA57"/>
<ellipse cx="48.0757" cy="203.115" rx="13.0303" ry="13.1148" fill="#FFDA57"/>
<rect x="24.5" y="238.5" width="212" height="137" rx="10.5" fill="white" stroke="#E65259" stroke-width="3"/>
<path d="M24.5 249C24.5 243.201 29.201 238.5 35 238.5H226C231.799 238.5 236.5 243.201 236.5 249V331.595H24.5V249Z" fill="white" stroke="#E65259" stroke-width="3"/>
<rect x="68" y="341" width="105" height="10" rx="3" fill="#FFDA57"/>
<rect x="68" y="355" width="49" height="11" rx="3" fill="#FFDA57"/>
<rect x="120" y="356" width="26" height="10" rx="3" fill="#FFDA57"/>
<rect x="149" y="356" width="49" height="10" rx="3" fill="#FFDA57"/>
<ellipse cx="48.0757" cy="353.115" rx="13.0303" ry="13.1148" fill="#FFDA57"/>
<rect x="24.5" y="388.5" width="212" height="137" rx="10.5" fill="white" stroke="#08090A" stroke-width="3"/>
<path d="M24.5 399C24.5 393.201 29.201 388.5 35 388.5H226C231.799 388.5 236.5 393.201 236.5 399V481.595H24.5V399Z" fill="white" stroke="#E65259" stroke-width="3"/>
<rect x="1.25068" y="1.24922" width="257.339" height="438.892" rx="10.7508" stroke="#E65259" stroke-width="2.49844"/>
</g>
<defs>
<clipPath id="clip0">
<rect width="260" height="441.67" rx="12" fill="white"/>
</clipPath>
</defs>
</svg>
