<svg width="127" height="115" viewBox="0 0 127 115" fill="none" xmlns="http://www.w3.org/2000/svg">
<path d="M32.567 18.0003L36.118 31.9335L39.1082 43.2505C39.4983 44.7266 40.8858 45.5362 42.3458 45.1394L51.0168 42.9152C52.4768 42.5184 53.2793 41.1138 52.8893 39.6377L49.8991 28.3207L46.348 14.3875L43.3578 3.07055C42.9678 1.59443 41.5802 0.784878 40.1202 1.1816L31.4493 3.40588C29.9892 3.8026 29.1868 5.20722 29.5768 6.68335L32.567 18.0003ZM28.7076 3.88718L14.6832 7.56611L3.33557 10.5177C1.87555 10.9144 1.07305 12.3191 1.46307 13.7952L3.73822 22.4059C4.12825 23.882 5.51578 24.6916 6.9758 24.2949L18.3235 21.3433L32.3478 17.6643L43.6954 14.7127C45.1555 14.316 45.958 12.9114 45.5679 11.4352L43.382 2.66844C42.9919 1.19232 41.6044 0.382766 40.1444 0.779491L28.7076 3.88718ZM105.4 60.7027L108.951 74.636L111.942 85.9529C112.332 87.429 113.719 88.2386 115.179 87.8418L123.939 85.4615C125.399 85.0648 126.202 83.6601 125.966 82.274L122.976 70.957L119.425 57.0238L116.435 45.7068C116.045 44.2307 114.657 43.4212 113.197 43.8179L104.437 46.1982C102.977 46.5949 102.174 47.9996 102.564 49.4757L105.4 60.7027ZM101.541 46.5896L87.5166 50.2685L76.169 53.2201C74.709 53.6168 73.9065 55.0215 74.2965 56.4976L76.4825 65.2644C76.8725 66.7405 78.26 67.5501 79.7201 67.1533L91.0677 64.2018L105.092 60.5228L116.44 57.5712C117.9 57.1745 118.702 55.7698 118.312 54.2937L116.126 45.5269C115.736 44.0508 114.349 43.2413 112.889 43.638L101.541 46.5896ZM44.4955 82.3939L14.1239 64.6738C10.2697 62.4251 6.56211 61.7185 5.69461 62.8772L1.08214 70.5907C0.368812 71.8393 2.82806 74.7308 6.68231 76.9796L37.0539 94.6997L67.2713 112.33C71.1255 114.579 74.8331 115.285 75.7006 114.127L80.3131 106.413C81.0264 105.164 78.5672 102.273 74.7129 100.024L44.4955 82.3939Z" fill="#08090A"/>
</svg>
