<svg width="120" height="131" viewBox="0 0 120 131" fill="none" xmlns="http://www.w3.org/2000/svg">
<path d="M96.1925 42.6082C95.7227 41.2096 96.3176 39.6756 97.58 38.8069C102.365 35.8655 104.48 30.2634 102.667 24.8687C100.922 19.6737 95.8544 16.4844 90.3313 17.228C88.8676 17.4973 87.4001 16.4338 86.9974 15.235L83.5745 5.04492C82.9704 3.24668 83.9643 1.5787 85.5605 1.04253L85.76 0.975505C99.7972 -2.18333 113.866 5.98724 118.43 19.574C123.061 33.3605 116.778 48.3673 103.815 54.723C102.286 55.459 100.287 54.7963 99.5502 53.2649C99.4831 53.0651 99.4831 53.0651 99.416 52.8653L96.1925 42.6082ZM93.4177 122.919L87.4442 105.137C87.3771 104.937 87.5095 104.67 87.3753 104.271L74.8915 67.1069C74.4888 65.908 75.0184 64.8407 76.2155 64.4386L87.9201 60.2845C89.5162 59.7483 90.4431 57.8806 89.9061 56.2821L86.5503 46.2919C86.0133 44.6934 84.1469 43.764 82.5507 44.3001L71.7766 47.9193C70.1805 48.4555 68.3811 47.7258 67.8442 46.1274L62.4748 30.143C61.9378 28.5445 62.8647 26.6768 64.4608 26.1406L75.2349 22.5214C76.8311 21.9852 77.7579 20.1175 77.221 18.519L73.8651 8.52879C73.3282 6.93035 71.4617 6.00087 69.8655 6.53704L42.9974 15.7848C41.4013 16.3209 40.4745 18.1887 41.0114 19.7872L45.374 32.7745L46.1794 35.1721L32.2801 40.0634C30.684 40.5996 29.7572 42.4674 30.2941 44.0658L33.65 54.0561C34.1869 55.6545 36.0534 56.584 37.5824 55.848L48.3565 52.2288C49.9527 51.6927 51.8191 52.6222 52.3561 54.2206L57.7254 70.205C58.2624 71.8034 57.3356 73.6712 55.7394 74.2074L44.9653 77.8265C43.3692 78.3627 42.4423 80.2305 42.9793 81.8289L46.3351 91.8192C46.8721 93.4176 48.7385 94.3471 50.2676 93.6111L61.9721 89.457C62.9697 89.1219 64.2358 89.586 64.6385 90.7849L77.1223 127.949C77.6593 129.547 79.5257 130.476 81.1219 129.94L91.0308 126.389C93.0278 126.386 93.9546 124.518 93.4177 122.919ZM33.2699 85.3128C32.8001 83.9142 31.3998 83.0504 29.936 83.3198C24.4129 84.0633 19.345 80.874 17.5999 75.6791C15.8549 70.4842 17.9025 64.6823 22.6874 61.7409C23.9498 60.8721 24.5447 59.3382 24.0748 57.9396L20.6519 47.7495C20.1149 46.1511 18.2485 45.2216 16.6523 45.7578C16.4528 45.8248 16.4528 45.8248 16.2533 45.8918C3.28995 52.2475 -2.99277 67.2543 1.63832 81.0408C6.2023 94.6275 20.2706 102.798 34.3078 99.6393C35.9711 99.3029 37.1645 97.5679 36.8271 95.9025C36.76 95.7026 36.76 95.7026 36.6929 95.5028L33.2699 85.3128Z" fill="#08090A"/>
</svg>
