<svg width="110" height="129" viewBox="0 0 110 129" fill="none" xmlns="http://www.w3.org/2000/svg">
<path d="M35.4016 52.1621C34.2676 52.638 33.0606 52.1455 32.5031 51.214C28.029 42.9353 17.9252 39.5163 9.2782 43.1447C0.548836 46.9741 -3.94811 56.5197 -1.17507 65.5122C-0.841602 66.7042 -1.39512 67.7689 -2.52915 68.2447L-9.75862 71.2783C-10.8927 71.7542 -12.3008 71.1796 -12.776 70.047L-12.8354 69.9055C-17.9386 54.5651 -10.4176 37.9234 4.34778 31.3947C19.232 25.1491 36.3168 31.2995 43.5464 45.7476C44.1634 46.8207 43.6463 48.3696 42.5123 48.8454L42.3705 48.9049L35.4016 52.1621ZM59.5569 104.96C60.6909 104.485 61.8979 104.977 62.4555 105.909C66.9295 114.187 77.0333 117.606 85.6803 113.978C94.2679 110.208 98.9066 100.603 96.1336 91.6104C95.8001 90.4184 96.3536 89.3537 97.4877 88.8778L104.717 85.8443C105.851 85.3684 107.259 85.943 107.734 87.0755L107.794 87.2171C112.897 102.557 105.376 119.199 90.6107 125.728C75.7265 131.973 58.6417 125.823 51.4121 111.375C50.7951 110.302 51.3122 108.753 52.4462 108.277C52.4462 108.277 52.4462 108.277 52.588 108.218L59.5569 104.96ZM76.5063 32.9163L68.9933 36.0688C67.8593 36.5446 66.4512 35.97 65.976 34.8375L61.1644 23.3706C60.6891 22.2381 61.2656 20.8308 62.3996 20.3549L70.0544 17.1429C71.1884 16.667 71.7649 15.2597 71.2897 14.1272L68.2601 6.90728C67.7849 5.77475 66.5185 5.14068 65.2428 5.67601L46.3071 13.7881C45.173 14.264 44.5966 15.6713 45.0718 16.8038L48.9924 26.1472L53.804 37.6141L58.6156 49.081L58.7938 49.5057L72.1594 81.3581C72.6347 82.4907 73.901 83.1247 75.035 82.6489L82.1228 79.6748C83.2568 79.1989 83.8333 77.7916 83.358 76.6591L72.2497 50.1862C71.8933 49.3368 72.2227 48.5326 73.0732 48.1757L81.4367 44.6663C82.5708 44.1904 83.1472 42.7831 82.672 41.6505L79.6425 34.4307C79.0485 33.015 77.6404 32.4404 76.5063 32.9163ZM86.3508 30.9498C85.935 29.9588 86.2874 28.812 87.1608 28.1125C90.3483 25.7761 91.6754 21.3899 90.1309 17.7092C88.5864 14.0284 84.6686 11.8431 80.8277 12.6223C79.776 12.8971 78.7108 12.3451 78.295 11.3542L75.2655 4.13426C74.7903 3.00173 75.3667 1.59439 76.4413 0.976968C76.5831 0.917485 76.5831 0.917488 76.7249 0.858005C86.8394 -2.05421 97.5142 3.12308 101.471 12.9506C105.57 22.7187 101.928 33.9037 92.823 39.2225C91.7484 39.8399 90.2579 39.4664 89.6409 38.3933C89.5815 38.2518 89.5815 38.2518 89.5221 38.1102L86.3508 30.9498Z" fill="#08090A"/>
</svg>
